<svg width="73" height="72" viewBox="0 0 73 72" fill="none" xmlns="http://www.w3.org/2000/svg">
<path fill-rule="evenodd" clip-rule="evenodd" d="M34.5122 0.015181C32.3226 0.15215 30.4526 0.383431 28.7934 0.722525C19.5024 2.62106 11.4488 8.02115 6.09619 15.9417C3.67528 19.5239 1.851 23.7544 0.901125 27.9886C-0.287906 33.289 -0.286313 38.6393 0.905813 43.9261C2.76591 52.1751 7.49513 59.4912 14.3091 64.6611C25.0113 72.7811 39.5043 74.1944 51.6658 68.304C56.7114 65.8602 61.1991 62.1825 64.597 57.7067C68.9004 52.0383 71.5128 44.9812 71.841 38.1387C71.874 37.4507 71.9365 36.8658 71.98 36.8389C72.0235 36.812 72.0591 36.3682 72.0591 35.8525C72.0591 35.2514 72.0254 34.9358 71.9653 34.973C71.9063 35.0094 71.8716 34.7943 71.8715 34.3926C71.8714 33.6105 71.7265 32.0242 71.5349 30.7073C70.1831 21.4161 65.1465 12.9273 57.6216 7.25784C52.2385 3.20212 45.9602 0.774744 39.2466 0.153369C38.0858 0.0460248 35.3138 -0.0348815 34.5122 0.015181ZM25.5591 22.0497C24.3844 22.2066 23.0131 22.7296 22.249 23.3123C21.5483 23.8467 17.4892 27.9312 17.3026 28.2895C17.1752 28.5342 17.1216 28.8276 17.1216 29.279C17.1216 29.8282 17.1613 29.9833 17.3978 30.3562C17.8012 30.9923 18.3173 31.3004 19.0584 31.3476C20.098 31.4137 20.2199 31.3314 22.6688 28.9087C25.2162 26.3884 25.4241 26.2492 26.5304 26.3215C27.526 26.3865 27.8427 26.5929 29.5682 28.3018L31.0929 29.8119L32.5916 28.3154C33.4159 27.4924 34.0903 26.7948 34.0903 26.7652C34.0903 26.7358 33.4681 26.0758 32.7075 25.2987C30.7982 23.3479 29.8523 22.6895 28.3555 22.2692C27.6754 22.0782 26.208 21.9631 25.5591 22.0497ZM44.0278 22.1654C43.5895 22.2625 43.0411 22.4176 42.8091 22.5099C41.5222 23.0223 41.5557 22.9908 30.4838 34.0612L19.8872 44.6566L19.0903 45.04C17.6689 45.7238 16.4464 45.7417 15.081 45.0985C14.1298 44.6505 13.4586 43.9897 12.986 43.0358C12.6486 42.3548 12.603 42.1798 12.5552 41.3786C12.4634 39.8389 12.8783 38.827 14.0962 37.6216L14.7353 36.9889L15.5279 37.7857C15.9638 38.2238 16.3531 38.5823 16.3929 38.5823C16.4328 38.5823 16.4653 37.1058 16.4653 35.3011V32.0198H13.1155H9.76575L10.695 32.9527L11.6243 33.8854L10.9187 34.6239C9.22425 36.3974 8.36381 38.3246 8.24316 40.6163C8.10188 43.3012 9.04931 45.6561 11.0182 47.5133C12.0884 48.523 12.9894 49.0535 14.3774 49.491C16.3718 50.1199 18.6179 50.0136 20.5148 49.2005C22.1557 48.4971 21.6564 48.9598 33.2466 37.4021C43.5854 27.0923 44.0975 26.5971 44.5794 26.4411C45.2357 26.2286 46.1674 26.2864 46.7315 26.5745C46.9734 26.698 47.859 27.5017 48.9177 28.5587C49.9223 29.5616 50.868 30.4231 51.0892 30.5369C51.6293 30.8148 52.4701 30.8177 52.9926 30.5435C54.0422 29.9926 54.4747 28.7005 53.9566 27.6631C53.7159 27.1813 50.2724 23.7222 49.5297 23.2163C47.9959 22.1715 45.8498 21.7615 44.0278 22.1654ZM54.741 34.6448C54.7404 36.4495 54.7652 37.9261 54.7961 37.9261C54.827 37.9261 55.2203 37.5596 55.6703 37.1118L56.4884 36.2975L57.0293 36.8071C57.9008 37.6282 58.5874 38.4221 58.8607 38.9247C60.5848 42.0957 57.8693 46.0195 54.3004 45.5141C53.6832 45.4267 52.9384 45.1727 52.4858 44.8953C52.3456 44.8094 49.6681 42.1833 46.5356 39.0595L40.8404 33.3799L39.2928 34.9275L37.7452 36.475L43.5818 42.2943C47.3578 46.059 49.6169 48.242 49.9805 48.4776C52.1587 49.8885 55.0448 50.2758 57.5532 49.4938C61.5091 48.2606 64.1303 44.2182 63.6255 40.1292C63.3342 37.7691 62.5993 36.3105 60.6989 34.3204C60.1407 33.7359 59.6841 33.2226 59.6841 33.1796C59.6841 33.1366 60.0735 32.7105 60.5494 32.2326L61.4147 31.3636H58.0784H54.742L54.741 34.6448ZM0 35.9573C0 36.4987 0.0154687 36.7202 0.0344063 36.4495C0.0533438 36.1789 0.0533438 35.7358 0.0344063 35.4652C0.0154687 35.1945 0 35.4159 0 35.9573Z" fill="url(#paint0_linear_417_6)"/>
<defs>
<linearGradient id="paint0_linear_417_6" x1="71.9653" y1="35.9574" x2="-0.0346663" y2="35.9574" gradientUnits="userSpaceOnUse">
<stop stop-color="white"/>
<stop offset="0.0001" stop-color="#FCFCFC" stop-opacity="0.989583"/>
<stop offset="1" stop-color="white" stop-opacity="0"/>
</linearGradient>
</defs>
</svg>
