<svg width="35" height="21" viewBox="0 0 35 21" fill="none" xmlns="http://www.w3.org/2000/svg">
<path d="M3.86851 20.348C2.71651 19.22 1.81651 17.786 1.16851 16.046C0.532508 14.306 0.214508 12.428 0.214508 10.412C0.214508 8.348 0.550508 6.422 1.22251 4.634C1.90651 2.834 2.87851 1.352 4.13851 0.188H5.84851V0.349999C4.50451 1.61 3.49051 3.128 2.80651 4.904C2.13451 6.668 1.79851 8.504 1.79851 10.412C1.79851 12.272 2.11651 14.048 2.75251 15.74C3.40051 17.432 4.34251 18.914 5.57851 20.186V20.348H3.86851ZM9.46834 3.68V17H7.83034V3.68H9.46834ZM13.106 5.534C12.794 5.534 12.53 5.426 12.314 5.21C12.098 4.994 11.99 4.73 11.99 4.418C11.99 4.106 12.098 3.842 12.314 3.626C12.53 3.41 12.794 3.302 13.106 3.302C13.406 3.302 13.658 3.41 13.862 3.626C14.078 3.842 14.186 4.106 14.186 4.418C14.186 4.73 14.078 4.994 13.862 5.21C13.658 5.426 13.406 5.534 13.106 5.534ZM13.898 7.136V17H12.26V7.136H13.898ZM22.1977 17L18.3277 12.644V17H16.6897V3.68H18.3277V11.51L22.1257 7.136H24.4117L19.7677 12.05L24.4297 17H22.1977ZM34.9534 11.69C34.9534 12.002 34.9354 12.332 34.8994 12.68H27.0154C27.0754 13.652 27.4054 14.414 28.0054 14.966C28.6174 15.506 29.3554 15.776 30.2194 15.776C30.9274 15.776 31.5154 15.614 31.9834 15.29C32.4634 14.954 32.7994 14.51 32.9914 13.958H34.7554C34.4914 14.906 33.9634 15.68 33.1714 16.28C32.3794 16.868 31.3954 17.162 30.2194 17.162C29.2834 17.162 28.4434 16.952 27.6994 16.532C26.9674 16.112 26.3914 15.518 25.9714 14.75C25.5514 13.97 25.3414 13.07 25.3414 12.05C25.3414 11.03 25.5454 10.136 25.9534 9.368C26.3614 8.6 26.9314 8.012 27.6634 7.604C28.4074 7.184 29.2594 6.974 30.2194 6.974C31.1554 6.974 31.9834 7.178 32.7034 7.586C33.4234 7.994 33.9754 8.558 34.3594 9.278C34.7554 9.986 34.9534 10.79 34.9534 11.69ZM33.2614 11.348C33.2614 10.724 33.1234 10.19 32.8474 9.746C32.5714 9.29 32.1934 8.948 31.7134 8.72C31.2454 8.48 30.7234 8.36 30.1474 8.36C29.3194 8.36 28.6114 8.624 28.0234 9.152C27.4474 9.68 27.1174 10.412 27.0334 11.348H33.2614Z" fill="#001B13"/>
</svg>
