<svg width="90" height="24" viewBox="0 0 90 24" fill="none" xmlns="http://www.w3.org/2000/svg">
<path d="M34.7 16.5C33.8 16.5 33 16.3 32.3 15.9C31.6 15.5 31 15 30.6 14.3C30.2 13.7 30 12.9 30 12C30 11.1 30.2 10.4 30.6 9.7C31 9 31.6 8.5 32.3 8.1C33 7.7 33.8 7.5 34.7 7.5C35.6 7.5 36.4 7.7 37.1 8.1C37.8 8.5 38.4 9 38.8 9.7C39.2 10.4 39.4 11.2 39.4 12C39.4 12.9 39.2 13.6 38.8 14.3C38.4 15 37.8 15.5 37.1 15.9C36.4 16.3 35.6 16.5 34.7 16.5ZM34.7 14.6C35.4 14.6 36 14.4 36.5 13.9C36.9 13.4 37.2 12.8 37.2 12C37.2 11.2 37 10.6 36.5 10.1C36.1 9.6 35.5 9.4 34.7 9.4C34 9.4 33.4 9.6 32.9 10.1C32.5 10.6 32.2 11.2 32.2 12C32.2 12.8 32.4 13.4 32.9 13.9C33.4 14.4 34 14.6 34.7 14.6ZM42.9 10.5C43.1 10.2 43.4 9.9 43.8 9.7C44.2 9.5 44.6 9.4 45.2 9.4C45.8 9.4 46.4 9.6 46.8 9.8C47.3 10.1 47.7 10.5 48 11C48.3 11.5 48.4 12.2 48.4 12.9C48.4 13.6 48.2 14.2 48 14.8C47.7 15.3 47.3 15.8 46.8 16.1C46.3 16.4 45.8 16.5 45.2 16.5C44.7 16.5 44.2 16.4 43.8 16.2C43.4 16 43.1 15.7 42.9 15.4V18.5H40.7V9.5H42.9V10.5ZM46.1 12.9C46.1 12.4 45.9 12 45.6 11.7C45.3 11.4 44.9 11.2 44.4 11.2C44 11.2 43.6 11.4 43.2 11.7C42.9 12 42.7 12.4 42.7 13C42.7 13.5 42.9 13.9 43.2 14.3C43.5 14.6 43.9 14.8 44.4 14.8C44.8 14.8 45.2 14.6 45.6 14.3C46 13.9 46.1 13.5 46.1 12.9ZM56.5 12.8C56.5 13 56.5 13.2 56.5 13.4H51.4C51.4 13.8 51.6 14.2 51.8 14.4C52.1 14.6 52.4 14.7 52.8 14.7C53.4 14.7 53.8 14.5 54 14H56.4C56.3 14.5 56.1 14.9 55.7 15.2C55.4 15.6 55 15.9 54.5 16.1C54 16.3 53.5 16.4 52.9 16.4C52.2 16.4 51.5 16.2 51 16C50.4 15.7 50 15.3 49.7 14.8C49.4 14.3 49.2 13.6 49.2 12.9C49.2 12.2 49.4 11.5 49.7 11C50 10.5 50.4 10 51 9.8C51.6 9.5 52.2 9.4 52.9 9.4C53.6 9.4 54.2 9.5 54.8 9.8C55.4 10.1 55.8 10.5 56.1 11C56.4 11.5 56.5 12.1 56.5 12.8ZM54.2 12.3C54.2 11.9 54.1 11.6 53.8 11.4C53.5 11.2 53.2 11.1 52.8 11.1C52.4 11.1 52.1 11.2 51.8 11.4C51.6 11.6 51.4 11.9 51.3 12.3H54.2ZM62.2 9.4C63.1 9.4 63.7 9.7 64.3 10.2C64.8 10.7 65.1 11.4 65.1 12.4V16.5H62.9V12.7C62.9 12.2 62.8 11.9 62.5 11.6C62.3 11.3 61.9 11.2 61.5 11.2C61.1 11.2 60.7 11.3 60.5 11.6C60.3 11.9 60.1 12.2 60.1 12.7V16.5H57.9V9.5H60V10.4C60.2 10.1 60.5 9.9 60.9 9.7C61.2 9.5 61.7 9.4 62.2 9.4ZM69.9 16.5C69.2 16.5 68.6 16.4 68.1 16.2C67.6 16 67.1 15.7 66.8 15.3C66.5 14.9 66.3 14.4 66.3 13.8H68.7C68.7 14.1 68.9 14.4 69.1 14.6C69.3 14.8 69.6 14.8 69.9 14.8C70.2 14.8 70.5 14.7 70.7 14.6C70.9 14.4 71 14.2 71 14C71 13.8 70.9 13.6 70.8 13.5C70.6 13.4 70.5 13.2 70.2 13.2C70 13.1 69.7 13 69.3 12.9C68.7 12.7 68.2 12.6 67.8 12.4C67.4 12.2 67.1 12 66.8 11.6C66.5 11.3 66.4 10.8 66.4 10.3C66.4 9.5 66.7 8.8 67.3 8.4C67.9 7.9 68.7 7.7 69.7 7.7C70.7 7.7 71.5 7.9 72.2 8.4C72.8 8.9 73.2 9.5 73.2 10.3H70.8C70.8 10 70.7 9.8 70.5 9.6C70.3 9.4 70 9.4 69.7 9.4C69.4 9.4 69.2 9.5 69 9.6C68.8 9.7 68.8 9.9 68.8 10.2C68.8 10.5 68.9 10.7 69.2 10.9C69.5 11.1 69.9 11.2 70.5 11.4C71.1 11.6 71.6 11.8 71.9 11.9C72.3 12.1 72.6 12.3 72.9 12.7C73.2 13 73.3 13.5 73.3 14C73.3 14.5 73.2 14.9 72.9 15.4C72.6 15.8 72.2 16.1 71.7 16.4C71.2 16.4 70.6 16.5 69.9 16.5ZM81.5 12.8C81.5 13 81.5 13.2 81.5 13.4H76.4C76.4 13.8 76.6 14.2 76.8 14.4C77.1 14.6 77.4 14.7 77.8 14.7C78.4 14.7 78.8 14.5 79 14H81.4C81.3 14.5 81.1 14.9 80.7 15.2C80.4 15.6 80 15.9 79.5 16.1C79 16.3 78.5 16.4 77.9 16.4C77.2 16.4 76.5 16.2 76 16C75.4 15.7 75 15.3 74.7 14.8C74.4 14.3 74.2 13.6 74.2 12.9C74.2 12.2 74.4 11.5 74.7 11C75 10.5 75.4 10 76 9.8C76.6 9.5 77.2 9.4 77.9 9.4C78.6 9.4 79.2 9.5 79.8 9.8C80.4 10.1 80.8 10.5 81.1 11C81.4 11.5 81.5 12.1 81.5 12.8ZM79.2 12.3C79.2 11.9 79.1 11.6 78.8 11.4C78.5 11.2 78.2 11.1 77.8 11.1C77.4 11.1 77.1 11.2 76.8 11.4C76.6 11.6 76.4 11.9 76.3 12.3H79.2ZM82.3 12.9C82.3 12.2 82.4 11.6 82.7 11C83 10.5 83.4 10 83.9 9.8C84.4 9.5 84.9 9.4 85.5 9.4C86 9.4 86.5 9.5 86.9 9.7C87.3 9.9 87.6 10.2 87.8 10.5V9.5H90V16.5H87.8V15.5C87.6 15.8 87.3 16.1 86.9 16.3C86.5 16.5 86.1 16.6 85.5 16.6C84.9 16.6 84.4 16.4 83.9 16.2C83.4 15.9 83 15.5 82.7 14.9C82.4 14.3 82.3 13.7 82.3 12.9ZM87.8 13C87.8 12.5 87.6 12.1 87.3 11.7C87 11.4 86.6 11.2 86.2 11.2C85.8 11.2 85.4 11.4 85 11.7C84.7 12 84.5 12.4 84.5 12.9C84.5 13.4 84.7 13.9 85 14.2C85.3 14.5 85.7 14.7 86.2 14.7C86.6 14.7 87 14.5 87.3 14.2C87.6 13.9 87.8 13.5 87.8 13ZM12 0C5.4 0 0 5.4 0 12C0 18.6 5.4 24 12 24C18.6 24 24 18.6 24 12C24 5.4 18.6 0 12 0ZM6 12.4L9.2 7.5C9.2 7.4 9.3 7.4 9.4 7.5C9.9 8.7 10.4 10.1 10.2 11C10.1 11.4 9.9 11.9 9.6 12.3C9.6 12.4 9.5 12.4 9.5 12.5C9.5 12.5 9.5 12.5 9.4 12.5H6.1C6 12.6 5.9 12.5 6 12.4ZM20 14.1C20 14.1 20 14.2 20 14.1C19.7 14.3 18.8 14.7 18.5 15.2C17.6 16.4 16.9 18.2 15.4 18.2H9.1C6.9 18.2 5.1 16.4 5.1 14.2V14C5.1 14 5.1 13.9 5.2 13.9H8.7C8.8 13.9 8.8 14 8.8 14C8.8 14.2 8.8 14.5 8.9 14.7C9.1 15.1 9.6 15.4 10 15.4H11.7V14H10V13.9C10 13.9 10 13.9 10.1 13.8C10.3 13.6 10.5 13.2 10.7 12.8C10.9 12.5 11 12.2 11.1 11.9C11.1 11.9 11.1 11.8 11.2 11.7C11.2 11.6 11.3 11.5 11.3 11.4C11.3 11.3 11.3 11.3 11.4 11.2C11.4 11 11.5 10.7 11.5 10.4C11.5 10.3 11.5 10.2 11.5 10.1C11.5 10 11.5 9.9 11.5 9.7C11.5 9.6 11.5 9.5 11.5 9.4C11.5 9.2 11.5 9.1 11.4 8.9C11.4 8.8 11.4 8.7 11.3 8.6C11.2 8.3 11.1 7.9 11 7.6C11 7.5 10.9 7.4 10.9 7.2C10.8 7 10.8 6.9 10.7 6.7C10.7 6.6 10.6 6.6 10.6 6.5C10.6 6.4 10.5 6.4 10.5 6.3C10.5 6.3 10.5 6.2 10.4 6.2L10 5.9C10 5.9 10 5.8 10.1 5.8L11.4 6.2H11.6H11.8H11.9V5.5C11.9 5.1 12.2 4.8 12.6 4.8C12.8 4.8 13 4.9 13.1 5C13.2 5.1 13.3 5.3 13.3 5.5V6.7H13.4L13.5 6.8C13.5 6.8 13.6 6.9 13.7 6.9C13.8 7 14 7.1 14.2 7.3L14.3 7.4C14.5 7.6 14.8 7.8 15 8.1C15 8.2 15 8.3 15.1 8.4C15.2 8.5 15.2 8.6 15.3 8.6C15.4 8.7 15.5 8.8 15.5 8.9C15.5 8.9 15.6 9 15.6 9.1C15.7 9.2 15.8 9.4 15.9 9.5C15.9 9.6 16 9.6 16 9.7C16.1 9.9 16.2 10.1 16.2 10.3V10.4C16.2 10.4 16.2 10.5 16.2 10.6C16.2 10.8 16.2 11 16.2 11.2C16.2 11.3 16.2 11.4 16.1 11.5C16.1 11.6 16.1 11.7 16 11.8C15.9 12 15.8 12.1 15.7 12.3C15.7 12.3 15.6 12.4 15.6 12.5C15.6 12.6 15.5 12.6 15.5 12.7C15.5 12.8 15.4 12.8 15.3 12.9C15.3 13 15.2 13 15.1 13.1C15 13.2 14.9 13.3 14.9 13.4C14.9 13.4 14.8 13.5 14.7 13.6C14.7 13.6 14.6 13.7 14.5 13.8C14.4 13.9 14.4 13.9 14.3 14L14.2 14.1C14.2 14.1 14.2 14.1 14.1 14.1H13V15.4H14.3C14.6 15.4 14.9 15.3 15.1 15.1C15.2 15 15.5 14.7 15.9 14.3L19.7 13.2C19.8 13.2 19.8 13.2 19.8 13.3V14.1H20Z" fill="#001B13"/>
</svg>
