<svg width="32" height="47" viewBox="0 0 32 47" fill="none" xmlns="http://www.w3.org/2000/svg">
<path d="M30.174 47C29.7036 46.999 29.2528 46.8105 28.9202 46.4758C28.5875 46.1411 28.4002 45.6874 28.3992 45.2141V40.0116C28.3992 39.538 28.2122 39.0837 27.8794 38.7488C27.5466 38.4139 27.0951 38.2257 26.6244 38.2257C26.1537 38.2257 25.7023 38.4139 25.3695 38.7488C25.0366 39.0837 24.8497 39.538 24.8497 40.0116V42.4812C24.8497 42.9549 24.6627 43.4092 24.3298 43.7441C23.997 44.079 23.5456 44.2672 23.0749 44.2672C22.6042 44.2672 22.1527 44.079 21.8199 43.7441C21.4871 43.4092 21.3001 42.9549 21.3001 42.4812V40.0116C21.3001 39.538 21.1131 39.0837 20.7803 38.7488C20.4474 38.4139 19.996 38.2257 19.5253 38.2257C19.0546 38.2257 18.6032 38.4139 18.2703 38.7488C17.9375 39.0837 17.7505 39.538 17.7505 40.0116V40.6837C17.7505 41.1577 17.5634 41.6123 17.2303 41.9475C16.8972 42.2827 16.4454 42.471 15.9744 42.471C15.5033 42.471 15.0516 42.2827 14.7185 41.9475C14.3854 41.6123 14.1983 41.1577 14.1983 40.6837V40.0116C14.1983 39.538 14.0113 39.0837 13.6784 38.7488C13.3456 38.4139 12.8942 38.2257 12.4235 38.2257C11.9528 38.2257 11.5014 38.4139 11.1685 38.7488C10.8357 39.0837 10.6487 39.538 10.6487 40.0116V42.4812C10.6487 42.9549 10.4617 43.4092 10.1289 43.7441C9.79603 44.079 9.34461 44.2672 8.87391 44.2672C8.40321 44.2672 7.95179 44.079 7.61895 43.7441C7.28611 43.4092 7.09913 42.9549 7.09913 42.4812V40.0116C7.09913 39.538 6.91214 39.0837 6.57931 38.7488C6.24647 38.4139 5.79505 38.2257 5.32435 38.2257C4.85364 38.2257 4.40222 38.4139 4.06939 38.7488C3.73655 39.0837 3.54956 39.538 3.54956 40.0116V45.2141C3.54956 45.6877 3.36258 46.142 3.02974 46.4769C2.69691 46.8118 2.24548 47 1.77478 47C1.30408 47 0.852658 46.8118 0.519822 46.4769C0.186985 46.142 0 45.6877 0 45.2141V15.7267C0.0856504 12.0672 1.40755 8.54622 3.74791 5.7439C6.08827 2.94158 9.30746 1.02508 12.8751 0.310176C16.4427 -0.404732 20.1459 0.124599 23.3746 1.81096C26.6032 3.49731 29.1647 6.24009 30.637 9.58738C31.4898 11.5231 31.9527 13.6098 31.9989 15.7267C32.0019 15.7486 31.9986 15.771 31.9894 15.7912C31.9802 15.8113 31.9654 15.8284 31.9468 15.8404V45.2129C31.9464 45.6862 31.7596 46.1401 31.4273 46.475C31.095 46.81 30.6443 46.9988 30.174 47ZM14.1786 20.4128C13.7279 20.4128 13.5451 20.5882 13.5451 21.0219C13.5451 22.076 14.7025 22.9332 16.1274 22.9332C17.5522 22.9332 18.7058 22.076 18.7058 21.0219C18.7058 20.589 18.5229 20.4135 18.0735 20.4135C17.833 20.4221 17.5934 20.4466 17.3562 20.4869L17.3338 20.4908C16.935 20.5566 16.5319 20.5936 16.1278 20.6014C15.7226 20.5936 15.3185 20.5567 14.9186 20.4908C14.674 20.4477 14.4267 20.4217 14.1786 20.4128ZM21.9043 11.7351C20.3332 11.7351 19.0561 13.207 19.0561 15.017C19.0561 16.8269 20.3332 18.2961 21.9043 18.2961C23.4753 18.2961 24.7478 16.825 24.7478 15.017C24.7478 13.2089 23.4726 11.7351 21.9043 11.7351ZM10.0962 11.7351C8.52899 11.7351 7.25269 13.207 7.25269 15.017C7.25269 16.8269 8.52899 18.2961 10.0962 18.2961C11.6634 18.2961 12.9405 16.825 12.9405 15.017C12.9405 13.2089 11.6646 11.7351 10.0962 11.7351Z" fill="white"/>
</svg>
