<svg width="79" height="24" viewBox="0 0 79 24" fill="none" xmlns="http://www.w3.org/2000/svg">
<g clip-path="url(#clip0_60_38)">
<path d="M4.8 0H19.2C21.9 0 24 2.1 24 4.8V19.2C24 21.9 21.9 24 19.2 24H4.8C2.1 24 0 21.9 0 19.2V4.8C0 2.1 2.1 0 4.8 0Z" fill="#FEDA03"/>
<path d="M38.1 17.4L36.1 13.4H35V17.4H33V7H37C38 7 38.8 7.3 39.4 7.9C40 8.5 40.3 9.3 40.3 10.2C40.3 10.9 40.1 11.5 39.7 12.1C39.3 12.6 38.8 13 38.1 13.2L40.3 17.4H38.1ZM35 11.6H36.6C37.1 11.6 37.5 11.5 37.8 11.2C38.1 10.9 38.2 10.6 38.2 10.2C38.2 9.8 38.1 9.4 37.8 9.1C37.5 8.8 37.1 8.7 36.6 8.7H35V11.6Z" fill="black"/>
<path d="M41.4 15.4C41.4 14.8 41.6 14.3 42 13.9C42.4 13.5 42.9 13.3 43.5 13.2L45.3 12.9C45.7 12.9 45.8 12.7 45.8 12.4C45.8 12.1 45.7 11.9 45.5 11.7C45.3 11.5 45 11.4 44.6 11.4C44.2 11.4 43.9 11.5 43.6 11.7C43.4 11.9 43.2 12.2 43.2 12.5L41.5 12.1C41.6 11.5 41.9 10.9 42.4 10.4C42.9 9.90001 43.7 9.70001 44.6 9.70001C45.7 9.70001 46.5 10 47 10.5C47.5 11 47.8 11.7 47.8 12.5V16C47.8 16.4 47.8 16.8 47.9 17.1H46.1C46.1 16.9 46 16.6 46 16.2C45.5 16.9 44.8 17.3 43.9 17.3C43.2 17.3 42.6 17.1 42.1 16.7C41.7 16.5 41.4 16 41.4 15.4ZM44.3 16.1C44.8 16.1 45.1 16 45.4 15.7C45.7 15.4 45.8 15 45.8 14.4V14.1L44.2 14.3C43.6 14.4 43.3 14.7 43.3 15.2C43.3 15.4 43.4 15.6 43.5 15.8C43.6 16 44 16.1 44.3 16.1Z" fill="black"/>
<path d="M54.1 10.1V12.1C53.9 12.1 53.7 12 53.5 12C52.9 12 52.5001 12.2 52.2001 12.5C51.9001 12.8 51.7001 13.3 51.7001 14.1V17.4H49.8V10.2H51.7001V11.3C52.0001 10.5 52.7001 10.2 53.7001 10.2C53.8001 10.1 53.9 10.1 54.1 10.1Z" fill="black"/>
<path d="M55.3 7.8C55.3 7.5 55.4001 7.2 55.7 6.9C55.9 6.7 56.2 6.5 56.5 6.5C56.8 6.5 57.1 6.6 57.3 6.9C57.5 7.1 57.7 7.4 57.7 7.8C57.7 8.1 57.6 8.4 57.3 8.6C57 8.8 56.8 9 56.5 9C56.2 9 55.9 8.9 55.7 8.6C55.5001 8.3 55.3 8.1 55.3 7.8ZM57.4 17.4H55.5V10.2H57.4V17.4Z" fill="black"/>
<path d="M61.4 17.4H59.5V6.79999H61.4V11C61.6 10.7 61.9 10.5 62.2 10.3C62.6 10.1 63 9.99999 63.5 9.99999C64.5 9.99999 65.3 10.4 65.9 11.1C66.5 11.8 66.8 12.7 66.8 13.8C66.8 14.9 66.5 15.8 65.9 16.5C65.3 17.2 64.5 17.6 63.4 17.6C62.4 17.6 61.7 17.2 61.3 16.5V17.4H61.4ZM64.5 15.3C64.8 14.9 65 14.4 65 13.8C65 13.2 64.8 12.7 64.5 12.3C64.2 11.9 63.7 11.8 63.2 11.8C62.7 11.8 62.3 12 61.9 12.3C61.6 12.7 61.4 13.2 61.4 13.8C61.4 14.4 61.6 14.9 61.9 15.3C62.2 15.7 62.7 15.8 63.2 15.8C63.7 15.8 64.1 15.6 64.5 15.3Z" fill="black"/>
<path d="M70.4 17.4H68.5V6.79999H70.4V17.4Z" fill="black"/>
<path d="M77.3 14.8L78.9 15.3C78.7 16 78.3 16.5 77.8 16.9C77.2 17.3 76.5 17.5 75.7 17.5C74.7 17.5 73.8 17.2 73.1 16.5C72.4 15.8 72 14.9 72 13.7C72 12.6 72.4 11.7 73.1 11C73.8 10.3 74.6 9.90002 75.6 9.90002C76.7 9.90002 77.6 10.2 78.2 10.9C78.8 11.6 79.1 12.5 79.1 13.6C79.1 13.7 79.1 13.8 79.1 13.9C79.1 14 79.1 14.1 79.1 14.1V14.2H74C74 14.7 74.2 15.1 74.6 15.4C75 15.7 75.4 15.9 75.9 15.9C76.5 15.9 77 15.6 77.3 14.8ZM73.9 13H77.1C77.1 12.6 76.9 12.3 76.7 12C76.4 11.7 76 11.6 75.5 11.6C75 11.6 74.7 11.7 74.4 12C74 12.3 73.9 12.6 73.9 13Z" fill="black"/>
<path d="M16.6 11.9C17.4 11.7 18 11.1 18 10C18 8.10001 16.4 7.70001 14.3 7.70001H6.09998V16.2H9.59998V13.3H13.7C14.3 13.3 14.7 13.5 14.7 14.2V16.2H18.2V14.1C18.1 12.9 17.5 12.2 16.6 11.9ZM13.7 11H9.59998V10.2H13.8C14.3 10.2 14.5 10.3 14.5 10.6C14.5 11 14.2 11 13.7 11Z" fill="black"/>
</g>
<defs>
<clipPath id="clip0_60_38">
<rect width="79" height="24" fill="white"/>
</clipPath>
</defs>
</svg>
