<svg width="90" height="24" viewBox="0 0 90 24" fill="none" xmlns="http://www.w3.org/2000/svg">
<g clip-path="url(#clip0_60_50)">
<path d="M16.5928 23.0868C22.7159 20.5505 25.6235 13.5307 23.0872 7.40762C20.5509 1.28454 13.5311 -1.6231 7.40803 0.913215C1.28496 3.44953 -1.62268 10.4693 0.913629 16.5924C3.44994 22.7155 10.4698 25.6231 16.5928 23.0868Z" fill="#2081E2"/>
<path d="M5.99998 12.4L9.19998 7.49999C9.19998 7.39999 9.29998 7.39999 9.39998 7.49999C9.89998 8.69999 10.4 10.1 10.2 11C10.1 11.4 9.89998 11.9 9.59998 12.3C9.59998 12.4 9.49998 12.4 9.49998 12.5C9.49998 12.5 9.49998 12.5 9.39998 12.5H6.09998C5.99998 12.6 5.89998 12.5 5.99998 12.4ZM20 14.1C20 14.1 20 14.2 20 14.1C19.7 14.3 18.8 14.7 18.5 15.2C17.6 16.4 16.9 18.2 15.4 18.2H9.09998C6.89998 18.2 5.09998 16.4 5.09998 14.2V14C5.09998 14 5.09998 13.9 5.19998 13.9H8.69998C8.79998 13.9 8.79998 14 8.79998 14C8.79998 14.2 8.79998 14.5 8.89998 14.7C9.09998 15.1 9.59998 15.4 9.99998 15.4H11.7V14H9.99998V13.9C9.99998 13.9 9.99998 13.9 10.1 13.8C10.3 13.6 10.5 13.2 10.7 12.8C10.9 12.5 11 12.2 11.1 11.9C11.1 11.9 11.1 11.8 11.2 11.7C11.2 11.6 11.3 11.5 11.3 11.4C11.3 11.3 11.3 11.3 11.4 11.2C11.4 11 11.5 10.7 11.5 10.4C11.5 10.3 11.5 10.2 11.5 10.1C11.5 9.99999 11.5 9.89999 11.5 9.69999C11.5 9.59999 11.5 9.49999 11.5 9.39999C11.5 9.19999 11.5 9.09999 11.4 8.89999C11.4 8.79999 11.4 8.69999 11.3 8.59999C11.2 8.29999 11.1 7.89999 11 7.59999C11 7.49999 10.9 7.39999 10.9 7.19999C10.8 6.99999 10.8 6.89999 10.7 6.69999C10.7 6.59999 10.6 6.59999 10.6 6.49999C10.6 6.39999 10.5 6.39999 10.5 6.29999C10.5 6.29999 10.5 6.19999 10.4 6.19999L9.99998 5.89999C9.99998 5.89999 9.99998 5.79999 10.1 5.79999L11.4 6.19999H11.6H11.8H11.9V5.49999C11.9 5.09999 12.2 4.79999 12.6 4.79999C12.8 4.79999 13 4.89999 13.1 4.99999C13.2 5.09999 13.3 5.29999 13.3 5.49999V6.69999H13.4L13.5 6.79999C13.5 6.79999 13.6 6.89999 13.7 6.89999C13.8 6.99999 14 7.09999 14.2 7.29999L14.3 7.39999C14.5 7.59999 14.8 7.79999 15 8.09999C15 8.19999 15 8.29999 15.1 8.39999C15.2 8.49999 15.2 8.59999 15.3 8.59999C15.4 8.69999 15.5 8.79999 15.5 8.89999C15.5 8.89999 15.6 8.99999 15.6 9.09999C15.7 9.19999 15.8 9.39999 15.9 9.49999C15.9 9.59999 16 9.59999 16 9.69999C16.1 9.89999 16.2 10.1 16.2 10.3V10.4C16.2 10.4 16.2 10.5 16.2 10.6C16.2 10.8 16.2 11 16.2 11.2C16.2 11.3 16.2 11.4 16.1 11.5C16.1 11.6 16.1 11.7 16 11.8C15.9 12 15.8 12.1 15.7 12.3C15.7 12.3 15.6 12.4 15.6 12.5C15.6 12.6 15.5 12.6 15.5 12.7C15.5 12.8 15.4 12.8 15.3 12.9C15.3 13 15.2 13 15.1 13.1C15 13.2 14.9 13.3 14.9 13.4C14.9 13.4 14.8 13.5 14.7 13.6C14.7 13.6 14.6 13.7 14.5 13.8C14.4 13.9 14.4 13.9 14.3 14L14.2 14.1C14.2 14.1 14.2 14.1 14.1 14.1H13V15.4H14.3C14.6 15.4 14.9 15.3 15.1 15.1C15.2 15 15.5 14.7 15.9 14.3L19.7 13.2C19.8 13.2 19.8 13.2 19.8 13.3V14.1H20Z" fill="white"/>
<path d="M46.8 9.8C46.3 9.5 45.8 9.4 45.2 9.4C44.7 9.4 44.2 9.5 43.8 9.7C43.4 9.9 43.1 10.2 42.9 10.5V9.5H40.7V18.5H42.9V15.4C43.1 15.7 43.4 16 43.8 16.2C44.2 16.4 44.7 16.5 45.2 16.5C45.8 16.5 46.4 16.3 46.8 16.1C47.3 15.8 47.7 15.4 48 14.8C48.3 14.3 48.4 13.6 48.4 12.9C48.4 12.2 48.2 11.6 48 11C47.7 10.5 47.3 10.1 46.8 9.8ZM45.7 14.2C45.4 14.5 45 14.7 44.5 14.7C44 14.7 43.7 14.5 43.3 14.2C43 13.9 42.8 13.5 42.8 12.9C42.8 12.4 43 11.9 43.3 11.6C43.6 11.3 44 11.1 44.5 11.1C45 11.1 45.3 11.3 45.7 11.6C46 11.9 46.2 12.3 46.2 12.8C46.1 13.5 46 13.9 45.7 14.2ZM37.1 8.1C36.4 7.7 35.6 7.5 34.7 7.5C33.8 7.5 33 7.7 32.3 8.1C31.6 8.5 31 9 30.6 9.7C30.2 10.4 30 11.2 30 12C30 12.9 30.2 13.6 30.6 14.3C31 15 31.6 15.5 32.3 15.9C33 16.3 33.8 16.5 34.7 16.5C35.6 16.5 36.4 16.3 37.1 15.9C37.8 15.5 38.4 15 38.8 14.3C39.2 13.6 39.4 12.8 39.4 12C39.4 11.1 39.2 10.4 38.8 9.7C38.4 9 37.9 8.5 37.1 8.1ZM36.5 13.9C36.1 14.4 35.5 14.6 34.7 14.6C34 14.6 33.4 14.4 32.9 13.9C32.5 13.4 32.2 12.8 32.2 12C32.2 11.2 32.4 10.6 32.9 10.1C33.3 9.6 33.9 9.4 34.7 9.4C35.4 9.4 36 9.6 36.5 10.1C36.9 10.6 37.2 11.2 37.2 12C37.2 12.8 36.9 13.4 36.5 13.9ZM64.2 10.2C64.7 10.7 65 11.4 65 12.4V16.5H62.8V12.7C62.8 12.2 62.7 11.9 62.4 11.6C62.2 11.3 61.8 11.2 61.4 11.2C61 11.2 60.6 11.3 60.4 11.6C60.2 11.9 60 12.2 60 12.7V16.5H57.8V9.5H60V10.4C60.2 10.1 60.5 9.9 60.9 9.7C61.3 9.5 61.7 9.4 62.2 9.4C63 9.4 63.7 9.7 64.2 10.2ZM79.8 9.8C79.2 9.5 78.6 9.4 77.9 9.4C77.2 9.4 76.5 9.6 76 9.8C75.4 10.1 75 10.5 74.7 11C74.4 11.5 74.2 12.2 74.2 12.9C74.2 13.6 74.4 14.2 74.7 14.8C75 15.4 75.4 15.8 76 16C76.6 16.3 77.2 16.4 77.9 16.4C78.5 16.4 79 16.3 79.5 16.1C80 15.9 80.4 15.6 80.7 15.2C81 14.8 81.3 14.4 81.4 14H79C78.8 14.5 78.4 14.7 77.8 14.7C77.4 14.7 77.1 14.6 76.8 14.4C76.5 14.2 76.4 13.8 76.4 13.4H81.5C81.5 13.2 81.5 13 81.5 12.8C81.5 12.1 81.3 11.5 81.1 11C80.8 10.5 80.4 10.1 79.8 9.8ZM79.2 12.3H76.4C76.5 11.9 76.6 11.6 76.9 11.4C77.2 11.2 77.5 11.1 77.9 11.1C78.3 11.1 78.6 11.2 78.9 11.4C79.2 11.6 79.2 11.9 79.2 12.3ZM87.8 9.5V10.5C87.6 10.2 87.3 9.9 86.9 9.7C86.5 9.5 86.1 9.4 85.5 9.4C84.9 9.4 84.3 9.6 83.9 9.8C83.4 10.1 83 10.5 82.7 11C82.4 11.5 82.3 12.2 82.3 12.9C82.3 13.6 82.4 14.3 82.7 14.8C83 15.3 83.4 15.8 83.9 16.1C84.4 16.4 84.9 16.5 85.5 16.5C86 16.5 86.5 16.4 86.9 16.2C87.3 16 87.6 15.7 87.8 15.4V16.4H90V9.4H87.8V9.5ZM87.3 14.2C87 14.5 86.6 14.7 86.2 14.7C85.7 14.7 85.4 14.5 85 14.2C84.7 13.9 84.5 13.5 84.5 12.9C84.5 12.4 84.7 12 85 11.7C85.3 11.4 85.7 11.2 86.2 11.2C86.7 11.2 87 11.4 87.3 11.7C87.6 12 87.8 12.4 87.8 13C87.8 13.5 87.6 13.9 87.3 14.2ZM54.8 9.8C54.2 9.5 53.6 9.4 52.9 9.4C52.2 9.4 51.5 9.6 51 9.8C50.4 10.1 50 10.5 49.7 11C49.4 11.5 49.2 12.2 49.2 12.9C49.2 13.6 49.4 14.2 49.7 14.8C50 15.4 50.4 15.8 51 16C51.6 16.2 52.2 16.4 52.9 16.4C53.5 16.4 54 16.3 54.5 16.1C55 15.9 55.4 15.6 55.7 15.2C56 14.8 56.3 14.4 56.4 14H54C53.8 14.5 53.4 14.7 52.8 14.7C52.4 14.7 52.1 14.6 51.8 14.4C51.5 14.2 51.4 13.8 51.4 13.4H56.5C56.5 13.2 56.5 13 56.5 12.8C56.5 12.1 56.3 11.5 56.1 11C55.8 10.5 55.3 10.1 54.8 9.8ZM54.2 12.3H51.4C51.5 11.9 51.6 11.6 51.9 11.4C52.2 11.2 52.5 11.1 52.9 11.1C53.3 11.1 53.6 11.2 53.9 11.4C54.1 11.6 54.2 11.9 54.2 12.3ZM72.8 12.5C73.1 12.8 73.2 13.3 73.2 13.8C73.2 14.3 73.1 14.7 72.8 15.2C72.5 15.6 72.1 15.9 71.6 16.2C71.1 16.4 70.5 16.6 69.8 16.6C69.1 16.6 68.5 16.5 68 16.3C67.5 16.1 67 15.8 66.7 15.4C66.4 15 66.2 14.5 66.2 13.9H68.6C68.6 14.2 68.8 14.5 69 14.7C69.2 14.9 69.5 14.9 69.8 14.9C70.1 14.9 70.4 14.8 70.6 14.7C70.8 14.5 70.9 14.3 70.9 14.1C70.9 13.9 70.8 13.7 70.7 13.6C70.5 13.5 70.4 13.3 70.1 13.3C69.9 13.2 69.6 13.1 69.2 13C68.6 12.8 68.1 12.7 67.7 12.5C67.3 12.3 67 12.1 66.7 11.7C66.4 11.4 66.3 10.9 66.3 10.4C66.3 9.6 66.6 8.9 67.2 8.5C67.8 8 68.6 7.8 69.6 7.8C70.6 7.8 71.4 8 72.1 8.5C72.7 9 73.1 9.6 73.1 10.4H70.7C70.7 10.1 70.6 9.9 70.4 9.7C70.2 9.5 69.9 9.5 69.6 9.5C69.3 9.5 69.1 9.6 68.9 9.7C68.7 9.8 68.7 10 68.7 10.3C68.7 10.6 68.8 10.8 69.1 11C69.4 11.2 69.8 11.3 70.4 11.5C71 11.7 71.5 11.9 71.8 12C72.2 12 72.6 12.2 72.8 12.5Z" fill="black"/>
</g>
<defs>
<clipPath id="clip0_60_50">
<rect width="90" height="24" fill="white"/>
</clipPath>
</defs>
</svg>
