<svg width="79" height="24" viewBox="0 0 79 24" fill="none" xmlns="http://www.w3.org/2000/svg">
<path d="M14.4344 10.62C14.4344 10.98 14.135 11.04 13.7157 11.04H9.58302V10.2H13.7157C14.135 10.2 14.4344 10.26 14.4344 10.62ZM23.9575 4.8V19.2C23.9575 21.84 21.8014 24 19.166 24H4.79151C2.15618 24 0 21.84 0 19.2V4.8C0 2.16 2.15618 0 4.79151 0H19.166C21.8014 0 23.9575 2.16 23.9575 4.8ZM18.0879 14.1C18.0879 12.96 17.4291 12.18 16.5307 11.94C17.3093 11.76 17.9682 11.16 17.9682 10.02C17.9682 8.1 16.351 7.68 14.3146 7.68H6.10917V16.2H9.58302V13.32H13.6558C14.3146 13.32 14.674 13.56 14.674 14.16V16.2H18.1478V14.1H18.0879ZM39.9492 17.46L37.7331 13.14C38.4519 12.96 38.9909 12.6 39.3503 12.06C39.7096 11.52 39.9492 10.92 39.9492 10.2C39.9492 9.3 39.6497 8.52 39.0508 7.92C38.4519 7.32 37.6133 7.02 36.655 7.02H32.5823V17.52H34.6187V13.5H35.6967L37.7331 17.52H39.9492V17.46ZM34.5588 8.7H36.2358C36.7748 8.7 37.1342 8.82 37.4337 9.12C37.7331 9.36 37.8529 9.72 37.8529 10.2C37.8529 10.62 37.7331 10.98 37.4337 11.28C37.1342 11.52 36.7149 11.7 36.2358 11.7H34.5588V8.7ZM41.6861 16.98C42.1653 17.4 42.7642 17.64 43.4829 17.64C44.4412 17.64 45.16 17.28 45.6391 16.56C45.6391 16.92 45.6391 17.22 45.699 17.46H47.4958C47.4359 17.1 47.4359 16.74 47.4359 16.32V12.72C47.4359 11.94 47.1964 11.22 46.6573 10.74C46.1183 10.26 45.3397 9.96 44.2616 9.96C43.3632 9.96 42.6444 10.2 42.1054 10.68C41.5663 11.16 41.2669 11.7 41.1471 12.36L42.884 12.72C42.884 12.36 43.0637 12.12 43.3033 11.88C43.5428 11.64 43.8423 11.52 44.2616 11.52C44.6808 11.52 44.9803 11.58 45.16 11.76C45.3397 11.94 45.4594 12.18 45.4594 12.42C45.4594 12.72 45.2798 12.9 44.9204 12.96L43.1236 13.2C42.4647 13.32 41.9856 13.56 41.5663 13.92C41.1471 14.28 40.9674 14.82 40.9674 15.42C41.0273 16.02 41.2669 16.56 41.6861 16.98ZM43.2434 15.96C43.0637 15.78 43.0038 15.6 43.0038 15.36C43.0038 14.82 43.3033 14.52 43.9022 14.46L45.5193 14.22V14.52C45.5193 15.12 45.3397 15.54 45.0402 15.84C44.7407 16.08 44.3814 16.26 43.9022 16.26C43.6027 16.2 43.423 16.08 43.2434 15.96ZM53.3654 10.08C52.3472 10.08 51.6285 10.44 51.2691 11.22V10.14H49.3525V17.4H51.329V14.1C51.329 13.38 51.5087 12.84 51.8681 12.54C52.2274 12.24 52.6467 12.06 53.2456 12.06C53.4253 12.06 53.6649 12.06 53.8446 12.12V10.14C53.6649 10.14 53.4852 10.08 53.3654 10.08ZM55.3419 8.64C55.5815 8.88 55.881 9 56.1804 9C56.4799 9 56.7794 8.88 57.019 8.64C57.2585 8.4 57.3783 8.1 57.3783 7.8C57.3783 7.44 57.2585 7.14 57.019 6.9C56.7794 6.66 56.4799 6.54 56.1804 6.54C55.881 6.54 55.5815 6.66 55.3419 6.9C55.1024 7.14 54.9826 7.44 54.9826 7.74C54.9826 8.1 55.1024 8.4 55.3419 8.64ZM57.1986 10.14H55.2221V17.4H57.1986V10.14ZM61.2115 16.56C61.6308 17.28 62.3495 17.64 63.3677 17.64C64.3859 17.64 65.2244 17.28 65.8234 16.56C66.4223 15.84 66.7817 14.94 66.7817 13.8C66.7817 12.66 66.4822 11.76 65.8832 11.04C65.2843 10.32 64.4458 9.96 63.4276 9.96C62.8886 9.96 62.4693 10.08 62.05 10.26C61.6907 10.44 61.3912 10.68 61.2115 10.98V6.72H59.2949V17.46H61.2115V16.56ZM63.0083 15.84C62.4693 15.84 62.05 15.66 61.6907 15.3C61.3313 14.94 61.1516 14.4 61.1516 13.8C61.1516 13.2 61.3313 12.66 61.6907 12.3C62.05 11.94 62.4693 11.76 63.0083 11.76C63.5474 11.76 63.9666 11.94 64.326 12.3C64.6854 12.66 64.8651 13.14 64.8651 13.8C64.8651 14.46 64.6854 14.94 64.326 15.3C63.9666 15.66 63.5474 15.84 63.0083 15.84ZM70.3154 6.72H68.3389V17.46H70.3154V6.72ZM75.5861 15.96C75.1069 15.96 74.6876 15.78 74.3283 15.48C73.9689 15.18 73.7892 14.76 73.7892 14.28H79V14.16C79 14.1 79 14.04 79 13.92C79 13.8 79 13.74 79 13.68C79 12.48 78.7005 11.58 78.0417 10.92C77.3829 10.26 76.5444 9.9 75.4064 9.9C74.4481 9.9 73.6096 10.26 72.8908 10.98C72.1721 11.7 71.8127 12.6 71.8127 13.74C71.8127 14.94 72.1721 15.84 72.8908 16.56C73.6096 17.28 74.508 17.64 75.5262 17.64C76.3647 17.64 77.0834 17.4 77.6823 16.98C78.2813 16.56 78.6406 16.02 78.8203 15.3L77.2032 14.82C77.0235 15.6 76.4246 15.96 75.5861 15.96ZM74.2684 12C74.5679 11.7 74.9272 11.58 75.4064 11.58C75.9454 11.58 76.3048 11.7 76.6043 12C76.9037 12.3 77.0235 12.6 77.0235 13.02H73.7892C73.8491 12.6 74.0288 12.3 74.2684 12Z" fill="#001B13"/>
</svg>
