<svg width="2400" height="2400" viewBox="0 0 2400 2400" fill="none" xmlns="http://www.w3.org/2000/svg">
<path d="M1200 0L1211.9 972.3L1325.4 6.5L1235.6 974.8L1449.5 26.2L1259 979.8L1570.8 58.8L1281.7 987.2L1688 103.8L1303.5 997L1800 160.7L1324.1 1008.7L1905.3 229.1L1343.4 1022.8L2002.9 308.3L1361.2 1038.8L2091.7 397.1L1377.2 1056.6L2170.7 494.7L1391.1 1075.9L2239.1 600L1403.1 1096.5L2296.3 712L1412.8 1118.3L2341.2 829.2L1420.2 1141L2373.8 950.5L1425.2 1164.3L2393.5 1074.5L1427.7 1188L2400 1200L1427.7 1211.9L2393.5 1325.4L1425.2 1235.6L2373.8 1449.4L1420.2 1258.9L2341.2 1570.7L1412.8 1281.6L2296.3 1687.9L1403.2 1303.4L2239.3 1799.9L1391.3 1324L2170.9 1905.2L1377.2 1343.4L2091.8 2002.9L1361.3 1361.2L2003 2091.7L1343.5 1377.1L1905.4 2170.8L1324.2 1391.2L1800.1 2239.2L1303.6 1403L1688.2 2296.1L1281.9 1412.6L1570.9 2341.2L1259.1 1420.2L1449.6 2373.8L1235.8 1425.2L1325.6 2393.5L1212 1427.7L1200 2400L1188.1 1427.7L1074.6 2393.5L1164.4 1425.2L950.6 2373.8L1141.1 1420.2L829.2 2341.2L1118.3 1412.8L712 2296.3L1096.6 1403.2L600 2239.3L1075.9 1391.3L494.7 2170.9L1056.5 1377.2L397.1 2091.7L1038.8 1361.2L308.3 2002.9L1022.9 1343.4L229.2 1905.3L1008.8 1324.1L160.8 1800L997 1303.5L103.8 1688L987.1 1281.6L58.7 1570.8L979.7 1259L26.3 1449.5L974.9 1235.7L6.6 1325.5L972.4 1212L0 1200L972.3 1188.1L6.5 1074.6L974.8 1164.4L26.2 950.6L979.7 1141.1L58.7 829.2L987.1 1118.3L103.8 712L997 1096.5L160.7 600L1008.7 1075.9L229.2 494.7L1022.9 1056.5L308.3 397.1L1038.8 1038.8L397.1 308.3L1056.6 1022.9L494.7 229.2L1075.9 1008.8L600 160.7L1096.5 996.8L712 103.7L1118.3 987L829.2 58.7L1141 979.7L950.5 26.2L1164.3 974.8L1074.5 6.5L1188 972.3L1200 0Z" fill="white"/>
</svg>
