<svg width="222" height="93" viewBox="0 0 222 93" fill="none" xmlns="http://www.w3.org/2000/svg">
<g filter="url(#filter0_d_99_5)">
<path d="M22.25 36.2C15.9167 36.2 11.1167 34.8 7.85 32C4.61667 29.2 3 25.0667 3 19.6C3 14.1333 4.6 10 7.8 7.2C11.0333 4.4 15.8167 3 22.15 3C24.2167 3 26.0333 3.15 27.6 3.45C29.2 3.75 30.7667 4.18333 32.3 4.75V15.3C29.2667 13.9 26.15 13.2 22.95 13.2C20.6167 13.2 18.7667 13.6667 17.4 14.6C16.0333 15.5 15.35 17.1667 15.35 19.6C15.35 22.0333 16.05 23.7167 17.45 24.65C18.85 25.55 20.7167 26 23.05 26C26.25 26 29.3667 25.3 32.4 23.9V34.45C30.8667 34.9833 29.3 35.4 27.7 35.7C26.1333 36.0333 24.3167 36.2 22.25 36.2Z" fill="#7646DA"/>
<path d="M34.9082 35.7V3.5H53.0082C55.7749 3.5 58.0582 4.03333 59.8582 5.1C61.6582 6.13333 62.9915 7.56667 63.8582 9.4C64.7582 11.2 65.2082 13.25 65.2082 15.55C65.2082 17.7167 64.6415 19.6167 63.5082 21.25C62.4082 22.8833 61.0749 24.2333 59.5082 25.3C59.8749 25.5333 60.1582 25.8 60.3582 26.1C60.5582 26.3667 60.7249 26.65 60.8582 26.95L64.6582 35.7H52.0582L48.9082 28.55C48.7415 28.15 48.5582 27.8833 48.3582 27.75C48.1582 27.5833 47.8749 27.5 47.5082 27.5H47.0082V35.7H34.9082ZM47.0082 18.05H49.9582C51.9249 18.05 52.9082 17.2167 52.9082 15.55C52.9082 14.6167 52.6749 13.95 52.2082 13.55C51.7749 13.15 51.0915 12.95 50.1582 12.95H47.0082V18.05Z" fill="#7646DA"/>
<path d="M74.8492 35.7V24L63.1992 3.5H75.7992L80.8992 13.75L85.9992 3.5H98.5992L86.9492 24V35.7H74.8492Z" fill="#7646DA"/>
<path d="M99.8496 35.7V3.5H117.95C120.716 3.5 123 4.06667 124.8 5.2C126.6 6.33333 127.933 7.85 128.8 9.75C129.7 11.65 130.15 13.75 130.15 16.05C130.15 18.3833 129.633 20.5 128.6 22.4C127.6 24.2667 126.166 25.75 124.3 26.85C122.466 27.95 120.283 28.5 117.75 28.5H111.95V35.7H99.8496ZM111.95 19.05H114.9C115.866 19.05 116.6 18.7833 117.1 18.25C117.6 17.7167 117.85 16.9833 117.85 16.05C117.85 13.9833 116.933 12.95 115.1 12.95H111.95V19.05Z" fill="#7646DA"/>
<path d="M138.087 35.7V12.2H129.887V3.5H158.387V12.2H150.187V35.7H138.087Z" fill="#7646DA"/>
<path d="M175.914 36.2C172.281 36.2 169.181 35.6667 166.614 34.6C164.047 33.5 162.081 31.7333 160.714 29.3C159.347 26.8667 158.664 23.6333 158.664 19.6C158.664 15.5333 159.347 12.3 160.714 9.9C162.081 7.46667 164.047 5.71667 166.614 4.65C169.181 3.55 172.281 3 175.914 3C179.547 3 182.647 3.55 185.214 4.65C187.781 5.71667 189.747 7.46667 191.114 9.9C192.481 12.3 193.164 15.5333 193.164 19.6C193.164 23.6333 192.481 26.8667 191.114 29.3C189.747 31.7333 187.781 33.5 185.214 34.6C182.647 35.6667 179.547 36.2 175.914 36.2ZM175.914 25.95C177.681 25.95 178.931 25.4833 179.664 24.55C180.431 23.5833 180.814 21.9333 180.814 19.6C180.814 17.2667 180.431 15.6333 179.664 14.7C178.931 13.7333 177.681 13.25 175.914 13.25C174.147 13.25 172.881 13.7333 172.114 14.7C171.381 15.6333 171.014 17.2667 171.014 19.6C171.014 21.9333 171.381 23.5833 172.114 24.55C172.881 25.4833 174.147 25.95 175.914 25.95Z" fill="#7646DA"/>
<path d="M4 85.7V53.5H16.1V76.5H29.25V85.7H4Z" fill="#7646DA"/>
<path d="M46.7637 86.2C43.1303 86.2 40.0303 85.6667 37.4637 84.6C34.897 83.5 32.9303 81.7333 31.5637 79.3C30.197 76.8667 29.5137 73.6333 29.5137 69.6C29.5137 65.5333 30.197 62.3 31.5637 59.9C32.9303 57.4667 34.897 55.7167 37.4637 54.65C40.0303 53.55 43.1303 53 46.7637 53C50.397 53 53.497 53.55 56.0637 54.65C58.6303 55.7167 60.597 57.4667 61.9637 59.9C63.3303 62.3 64.0137 65.5333 64.0137 69.6C64.0137 73.6333 63.3303 76.8667 61.9637 79.3C60.597 81.7333 58.6303 83.5 56.0637 84.6C53.497 85.6667 50.397 86.2 46.7637 86.2ZM46.7637 75.95C48.5303 75.95 49.7803 75.4833 50.5137 74.55C51.2803 73.5833 51.6637 71.9333 51.6637 69.6C51.6637 67.2667 51.2803 65.6333 50.5137 64.7C49.7803 63.7333 48.5303 63.25 46.7637 63.25C44.997 63.25 43.7303 63.7333 42.9637 64.7C42.2303 65.6333 41.8637 67.2667 41.8637 69.6C41.8637 71.9333 42.2303 73.5833 42.9637 74.55C43.7303 75.4833 44.997 75.95 46.7637 75.95Z" fill="#7646DA"/>
<path d="M72.4617 85.7V62.2H64.2617V53.5H92.7617V62.2H84.5617V85.7H72.4617Z" fill="#7646DA"/>
<path d="M102.735 85.7V62.2H94.5352V53.5H123.035V62.2H114.835V85.7H102.735Z" fill="#7646DA"/>
<path d="M124.801 85.7V53.5H150.551V62.2H136.901V65.1H148.651V74.1H136.901V77H150.551V85.7H124.801Z" fill="#7646DA"/>
<path d="M152.535 85.7V53.5H170.635C173.402 53.5 175.685 54.0333 177.485 55.1C179.285 56.1333 180.618 57.5667 181.485 59.4C182.385 61.2 182.835 63.25 182.835 65.55C182.835 67.7167 182.268 69.6167 181.135 71.25C180.035 72.8833 178.702 74.2333 177.135 75.3C177.502 75.5333 177.785 75.8 177.985 76.1C178.185 76.3667 178.352 76.65 178.485 76.95L182.285 85.7H169.685L166.535 78.55C166.368 78.15 166.185 77.8833 165.985 77.75C165.785 77.5833 165.502 77.5 165.135 77.5H164.635V85.7H152.535ZM164.635 68.05H167.585C169.552 68.05 170.535 67.2167 170.535 65.55C170.535 64.6167 170.302 63.95 169.835 63.55C169.402 63.15 168.718 62.95 167.785 62.95H164.635V68.05Z" fill="#7646DA"/>
<path d="M192.476 85.7V74L180.826 53.5H193.426L198.526 63.75L203.626 53.5H216.226L204.576 74V85.7H192.476Z" fill="#7646DA"/>
</g>
<path fill-rule="evenodd" clip-rule="evenodd" d="M5.89185 34.2728L5.8861 34.2678C1.82092 30.7475 0 25.6773 0 19.6C0 13.5325 1.79796 8.46548 5.82449 4.94227L5.83028 4.9372L5.8361 4.93216C9.82478 1.47805 15.4327 0 22.15 0C24.3514 0 26.3622 0.158946 28.1584 0.502429C29.4277 0.74064 30.6778 1.05487 31.9082 1.44482V0.5H53.0082C54.9503 0.5 56.7841 0.731342 58.4664 1.2437L58.0437 0.5H77.6574L80.8992 7.01548L84.1411 0.5H117.95C121.115 0.5 123.995 1.14844 126.398 2.6613C126.564 2.7657 126.727 2.87286 126.887 2.98275V0.5H161.387V4.37507C162.574 3.35067 163.931 2.51817 165.448 1.88596C168.479 0.590155 171.998 0 175.914 0C179.83 0 183.35 0.590155 186.38 1.88596C189.56 3.21099 192.034 5.4158 193.725 8.42324C195.44 11.4387 196.164 15.2456 196.164 19.6C196.164 23.9333 195.436 27.7312 193.73 30.7691C192.04 33.7783 189.569 35.9976 186.396 37.3574L186.381 37.3639L186.365 37.3703C183.34 38.6274 179.827 39.2 175.914 39.2C172.001 39.2 168.488 38.6274 165.463 37.3703L165.448 37.3639L165.432 37.3574C162.259 35.9976 159.788 33.7783 158.098 30.7691C156.392 27.7312 155.664 23.9333 155.664 19.6C155.664 18.0614 155.754 16.5911 155.947 15.2H153.187V38.7H135.087V15.2H133.132C133.144 15.4815 133.15 15.7649 133.15 16.05C133.15 18.8403 132.528 21.4532 131.239 23.8253C129.976 26.1808 128.154 28.0584 125.833 29.4286C123.456 30.852 120.721 31.5 117.75 31.5H114.95V38.7H96.8496V12.6506L89.9492 24.7929V38.7H71.8492V24.7929L67.9979 18.0159C67.6857 19.7878 67.0222 21.4427 65.985 22.9428C65.2835 23.9822 64.4964 24.9321 63.6244 25.7883L69.2318 38.7H50.1016L50.0082 38.4879V38.7H31.9082V37.7615C30.7191 38.1177 29.5123 38.4112 28.2881 38.642C26.4764 39.0241 24.4548 39.2 22.25 39.2C15.5297 39.2 9.91443 37.7207 5.89763 34.2778L5.89185 34.2728ZM27.7 35.7C29.1293 35.432 30.5321 35.0709 31.9082 34.6167C32.0725 34.5625 32.2364 34.5069 32.4 34.45V23.9C32.2363 23.9756 32.0724 24.0491 31.9082 24.1205C31.0783 24.4818 30.2423 24.791 29.4 25.0481C27.3211 25.6827 25.2044 26 23.05 26C20.7167 26 18.85 25.55 17.45 24.65C16.05 23.7167 15.35 22.0333 15.35 19.6C15.35 17.1667 16.0333 15.5 17.4 14.6C18.7667 13.6667 20.6167 13.2 22.95 13.2C25.1044 13.2 27.2211 13.5173 29.3 14.1519C30.1761 14.4193 31.0455 14.7431 31.9082 15.1233C32.039 15.1809 32.1696 15.2398 32.3 15.3V4.75C32.1696 4.70183 32.039 4.65461 31.9082 4.60836C30.5 4.11062 29.064 3.7245 27.6 3.45C26.0333 3.15 24.2167 3 22.15 3C15.8167 3 11.0333 4.4 7.8 7.2C4.6 10 3 14.1333 3 19.6C3 25.0667 4.61667 29.2 7.85 32C11.1167 34.8 15.9167 36.2 22.25 36.2C24.3167 36.2 26.1333 36.0333 27.7 35.7ZM31.9082 18.4233L31.0428 18.0239C28.3859 16.7976 25.6967 16.2 22.95 16.2C20.982 16.2 19.794 16.5979 19.0919 17.0774L19.071 17.0916L19.05 17.1055C18.8854 17.2139 18.35 17.6524 18.35 19.6C18.35 21.4663 18.8574 21.9755 19.0973 22.1424C19.8578 22.6224 21.0917 23 23.05 23C25.7967 23 28.4859 22.4024 31.1428 21.1761L31.9082 20.8229V18.4233ZM34.9082 35.7H47.0082V27.5H47.5082C47.8749 27.5 48.1582 27.5833 48.3582 27.75C48.5582 27.8833 48.7415 28.15 48.9082 28.55L52.0582 35.7H64.6582L60.8582 26.95C60.7249 26.65 60.5582 26.3667 60.3582 26.1C60.1582 25.8 59.8749 25.5333 59.5082 25.3C60.3588 24.7209 61.1405 24.0583 61.8535 23.3122C62.4538 22.684 63.0054 21.9966 63.5082 21.25C64.6415 19.6167 65.2082 17.7167 65.2082 15.55C65.2082 14.5313 65.1199 13.5616 64.9434 12.6409C64.7213 11.483 64.3596 10.4027 63.8582 9.4C63.215 8.03938 62.3148 6.89907 61.1575 5.97909C60.7554 5.65946 60.3223 5.36644 59.8582 5.1C58.0582 4.03333 55.7749 3.5 53.0082 3.5H34.9082V35.7ZM74.8492 24V35.7H86.9492V24L98.5992 3.5H85.9992L80.8992 13.75L75.7992 3.5H63.1992L74.8492 24ZM99.8496 35.7H111.95V28.5H117.75C120.283 28.5 122.466 27.95 124.3 26.85C126.166 25.75 127.6 24.2667 128.6 22.4C129.633 20.5 130.15 18.3833 130.15 16.05C130.15 15.7636 130.143 15.4802 130.129 15.2C130.093 14.4873 130.013 13.7946 129.887 13.122C129.828 12.8103 129.76 12.503 129.683 12.2C129.465 11.3494 129.17 10.5327 128.8 9.75C128.311 8.67787 127.673 7.7278 126.887 6.89979C126.28 6.26042 125.584 5.69382 124.8 5.2C123 4.06667 120.716 3.5 117.95 3.5H99.8496V35.7ZM129.887 12.2H138.087V35.7H150.187V12.2H158.387V3.5H129.887V12.2ZM160.714 9.9C160.317 10.5965 159.978 11.3632 159.697 12.2C159.389 13.1159 159.15 14.1159 158.979 15.2C158.769 16.5385 158.664 18.0052 158.664 19.6C158.664 23.6333 159.347 26.8667 160.714 29.3C162.081 31.7333 164.047 33.5 166.614 34.6C169.181 35.6667 172.281 36.2 175.914 36.2C179.547 36.2 182.647 35.6667 185.214 34.6C187.781 33.5 189.747 31.7333 191.114 29.3C192.481 26.8667 193.164 23.6333 193.164 19.6C193.164 15.5333 192.481 12.3 191.114 9.9C189.747 7.46667 187.781 5.71667 185.214 4.65C182.647 3.55 179.547 3 175.914 3C172.281 3 169.181 3.55 166.614 4.65C164.442 5.55273 162.699 6.94489 161.387 8.82648C161.148 9.16818 160.924 9.52602 160.714 9.9ZM52.2082 13.55C51.7749 13.15 51.0915 12.95 50.1582 12.95H47.0082V18.05H49.9582C49.9749 18.05 49.9916 18.0499 50.0082 18.0498C51.9415 18.0358 52.9082 17.2025 52.9082 15.55C52.9082 14.6167 52.6749 13.95 52.2082 13.55ZM111.95 12.95H115.1C116.933 12.95 117.85 13.9833 117.85 16.05C117.85 16.9833 117.6 17.7167 117.1 18.25C116.608 18.7741 115.892 19.0407 114.95 19.0498C114.933 19.0499 114.916 19.05 114.9 19.05H111.95V12.95ZM177.305 22.6965L177.314 22.6858C177.422 22.5494 177.814 21.7783 177.814 19.6C177.814 18.5817 177.729 17.8343 177.606 17.3105C177.546 17.0536 177.482 16.8751 177.429 16.7579C177.381 16.6494 177.348 16.6067 177.346 16.6042L177.309 16.5594L177.274 16.5132C177.269 16.5062 177.263 16.4991 177.247 16.4874C177.229 16.4746 177.184 16.4452 177.095 16.4106C176.905 16.3374 176.539 16.25 175.914 16.25C175.291 16.25 174.914 16.3369 174.709 16.4154C174.548 16.4766 174.493 16.5305 174.471 16.5559C174.463 16.5672 174.433 16.6139 174.39 16.713C174.338 16.8351 174.275 17.0193 174.216 17.2821C174.096 17.8174 174.014 18.5749 174.014 19.6C174.014 21.5914 174.327 22.4316 174.467 22.679C174.5 22.7049 174.562 22.7431 174.676 22.785C174.893 22.8647 175.281 22.95 175.914 22.95C176.549 22.95 176.927 22.8642 177.127 22.7895C177.222 22.7541 177.269 22.7241 177.287 22.7116C177.294 22.7069 177.298 22.7035 177.3 22.7015C177.301 22.7007 177.302 22.7001 177.302 22.6997C177.303 22.6985 177.304 22.6977 177.305 22.6965ZM172.114 14.7C172.881 13.7333 174.147 13.25 175.914 13.25C177.681 13.25 178.931 13.7333 179.664 14.7C180.431 15.6333 180.814 17.2667 180.814 19.6C180.814 21.9333 180.431 23.5833 179.664 24.55C178.931 25.4833 177.681 25.95 175.914 25.95C174.147 25.95 172.881 25.4833 172.114 24.55C171.381 23.5833 171.014 21.9333 171.014 19.6C171.014 17.2667 171.381 15.6333 172.114 14.7ZM1 88.7V50.5H19.1V73.5H26.7348C26.5848 72.2569 26.5137 70.9546 26.5137 69.6C26.5137 65.2455 27.2376 61.4386 28.9523 58.4232C30.6435 55.4159 33.1177 53.2111 36.297 51.8861C39.3279 50.5902 42.8474 50 46.7637 50C50.68 50 54.1995 50.5902 57.2304 51.8861C58.7348 52.5131 60.0813 53.3371 61.2617 54.3499V50.5H170.635C172.577 50.5 174.411 50.7313 176.093 51.2437L175.671 50.5H195.284L198.526 57.0155L201.768 50.5H221.382L207.576 74.7929V88.7H189.476V74.7929L185.625 68.016C185.313 69.7878 184.649 71.4428 183.612 72.9429C182.91 73.9822 182.123 74.9321 181.251 75.7883L186.859 88.7H167.729L167.635 88.4879V88.7H121.801V65.2H117.835V88.7H99.7352V65.2H87.5617V88.7H69.4617V65.2H66.7307C66.9233 66.5911 67.0137 68.0614 67.0137 69.6C67.0137 73.9333 66.2856 77.7312 64.5794 80.7691C62.8893 83.7783 60.4184 85.9976 57.2454 87.3574L57.2302 87.364L57.215 87.3703C54.19 88.6274 50.6766 89.2 46.7637 89.2C42.8507 89.2 39.3373 88.6274 36.3124 87.3703L36.2971 87.364L36.2819 87.3574C34.7773 86.7126 33.4305 85.8745 32.25 84.8505V88.7H1ZM29.25 76.5H16.1V53.5H4V85.7H29.25V76.5ZM32.25 80.3943C33.5611 82.2704 35.299 83.6723 37.4637 84.6C40.0303 85.6667 43.1303 86.2 46.7637 86.2C50.397 86.2 53.497 85.6667 56.0637 84.6C58.6303 83.5 60.597 81.7333 61.9637 79.3C63.3303 76.8667 64.0137 73.6333 64.0137 69.6C64.0137 68.0052 63.9086 66.5385 63.6984 65.2C63.5281 64.1159 63.289 63.1159 62.9809 62.2C62.6993 61.3632 62.3603 60.5965 61.9637 59.9C61.745 59.5107 61.5111 59.139 61.2617 58.7847C59.9524 56.9242 58.2197 55.546 56.0637 54.65C53.497 53.55 50.397 53 46.7637 53C43.1303 53 40.0303 53.55 37.4637 54.65C34.897 55.7167 32.9303 57.4667 31.5637 59.9C30.197 62.3 29.5137 65.5333 29.5137 69.6C29.5137 70.9958 29.5955 72.2958 29.7592 73.5C29.9055 74.5766 30.1173 75.5766 30.3944 76.5C30.7031 77.5283 31.0928 78.4616 31.5637 79.3C31.7777 79.6811 32.0065 80.0459 32.25 80.3943ZM64.2617 62.2H72.4617V85.7H84.5617V62.2H92.7617V53.5H64.2617V62.2ZM102.735 62.2V85.7H114.835V62.2H123.035V53.5H94.5352V62.2H102.735ZM124.801 85.7H150.551V77H136.901V74.1H148.651V65.1H136.901V62.2H150.551V53.5H124.801V85.7ZM152.535 85.7H164.635V77.5H165.135C165.502 77.5 165.785 77.5833 165.985 77.75C166.185 77.8833 166.368 78.15 166.535 78.55L169.685 85.7H182.285L178.485 76.95C178.352 76.65 178.185 76.3667 177.985 76.1C177.785 75.8 177.502 75.5333 177.135 75.3C177.986 74.7209 178.767 74.0583 179.48 73.3122C180.081 72.684 180.632 71.9966 181.135 71.25C182.268 69.6167 182.835 67.7167 182.835 65.55C182.835 64.5313 182.747 63.5616 182.57 62.641C182.348 61.4831 181.987 60.4027 181.485 59.4C180.842 58.0394 179.942 56.8991 178.784 55.9791C178.382 55.6595 177.949 55.3664 177.485 55.1C175.685 54.0333 173.402 53.5 170.635 53.5H152.535V85.7ZM192.476 74V85.7H204.576V74L216.226 53.5H203.626L198.526 63.75L193.426 53.5H180.826L192.476 74ZM48.1547 72.6965L48.1632 72.6858C48.2714 72.5494 48.6637 71.7783 48.6637 69.6C48.6637 68.5817 48.5785 67.8343 48.4555 67.3105C48.3952 67.0536 48.3315 66.8751 48.279 66.7579C48.2294 66.6472 48.196 66.6049 48.1953 66.604L48.1587 66.5594L48.1236 66.5132C48.1184 66.5062 48.1122 66.4991 48.0962 66.4874C48.0787 66.4746 48.0338 66.4452 47.9442 66.4106C47.7549 66.3374 47.3883 66.25 46.7637 66.25C46.1408 66.25 45.7639 66.3369 45.5582 66.4154C45.3976 66.4767 45.3424 66.5305 45.3209 66.5559C45.313 66.5672 45.2823 66.6139 45.2399 66.713C45.1875 66.8351 45.1248 67.0193 45.0658 67.2821C44.9457 67.8174 44.8637 68.575 44.8637 69.6C44.8637 71.5914 45.1761 72.4316 45.3166 72.679C45.3498 72.7049 45.412 72.743 45.5258 72.785C45.7422 72.8647 46.1309 72.95 46.7637 72.95C47.3982 72.95 47.7767 72.8642 47.9769 72.7895C48.0716 72.7541 48.119 72.7241 48.1367 72.7116C48.1419 72.708 48.1456 72.7051 48.148 72.703C48.15 72.7014 48.1512 72.7003 48.1518 72.6997C48.1531 72.6985 48.1538 72.6977 48.1547 72.6965ZM42.9637 64.7C43.7303 63.7333 44.997 63.25 46.7637 63.25C48.5303 63.25 49.7803 63.7333 50.5137 64.7C51.2803 65.6333 51.6637 67.2667 51.6637 69.6C51.6637 71.9333 51.2803 73.5833 50.5137 74.55C49.7803 75.4833 48.5303 75.95 46.7637 75.95C44.997 75.95 43.7303 75.4833 42.9637 74.55C42.2303 73.5833 41.8637 71.9333 41.8637 69.6C41.8637 67.2667 42.2303 65.6333 42.9637 64.7ZM167.635 68.0498C169.568 68.0358 170.535 67.2025 170.535 65.55C170.535 64.6167 170.302 63.95 169.835 63.55C169.402 63.15 168.718 62.95 167.785 62.95H164.635V68.05H167.585C167.602 68.05 167.619 68.0499 167.635 68.0498Z" fill="white"/>
<defs>
<filter id="filter0_d_99_5" x="0" y="3" width="219.226" height="89.2" filterUnits="userSpaceOnUse" color-interpolation-filters="sRGB">
<feFlood flood-opacity="0" result="BackgroundImageFix"/>
<feColorMatrix in="SourceAlpha" type="matrix" values="0 0 0 0 0 0 0 0 0 0 0 0 0 0 0 0 0 0 127 0" result="hardAlpha"/>
<feOffset dy="3"/>
<feGaussianBlur stdDeviation="1.5"/>
<feComposite in2="hardAlpha" operator="out"/>
<feColorMatrix type="matrix" values="0 0 0 0 0 0 0 0 0 0 0 0 0 0 0 0 0 0 0.1 0"/>
<feBlend mode="normal" in2="BackgroundImageFix" result="effect1_dropShadow_99_5"/>
<feBlend mode="normal" in="SourceGraphic" in2="effect1_dropShadow_99_5" result="shape"/>
</filter>
</defs>
</svg>
