<svg width="507" height="50" viewBox="0 0 507 50" fill="none" xmlns="http://www.w3.org/2000/svg">
<g filter="url(#filter0_d_91_25)">
<path d="M27 43.6C19.4 43.6 13.64 41.92 9.72002 38.56C5.84002 35.2 3.90002 30.24 3.90002 23.68C3.90002 17.12 5.82002 12.16 9.66002 8.79999C13.54 5.43999 19.28 3.75999 26.88 3.75999C29.36 3.75999 31.54 3.93999 33.42 4.29999C35.34 4.65999 37.22 5.18 39.06 5.86V18.52C35.42 16.84 31.68 16 27.84 16C25.04 16 22.82 16.56 21.18 17.68C19.54 18.76 18.72 20.76 18.72 23.68C18.72 26.6 19.56 28.62 21.24 29.74C22.92 30.82 25.16 31.36 27.96 31.36C31.8 31.36 35.54 30.52 39.18 28.84V41.5C37.34 42.14 35.46 42.64 33.54 43C31.66 43.4 29.48 43.6 27 43.6Z" fill="#7646DA"/>
<path d="M42.1899 43V4.35999H63.9099C67.2299 4.35999 69.9699 4.99999 72.1299 6.27999C74.2899 7.51999 75.8899 9.24 76.9299 11.44C78.0099 13.6 78.5499 16.06 78.5499 18.82C78.5499 21.42 77.8699 23.7 76.5099 25.66C75.1899 27.62 73.5899 29.24 71.7099 30.52C72.1499 30.8 72.4899 31.12 72.7299 31.48C72.9699 31.8 73.1699 32.14 73.3299 32.5L77.8899 43H62.7699L58.9899 34.42C58.7899 33.94 58.5699 33.62 58.3299 33.46C58.0899 33.26 57.7499 33.16 57.3099 33.16H56.7099V43H42.1899ZM56.7099 21.82H60.2499C62.6099 21.82 63.7899 20.82 63.7899 18.82C63.7899 17.7 63.5099 16.9 62.9499 16.42C62.4299 15.94 61.6099 15.7 60.4899 15.7H56.7099V21.82Z" fill="#7646DA"/>
<path d="M90.1191 43V28.96L76.1391 4.35999H91.2591L97.3791 16.66L103.499 4.35999H118.619L104.639 28.96V43H90.1191Z" fill="#7646DA"/>
<path d="M120.12 43V4.35999H141.84C145.16 4.35999 147.9 5.04 150.06 6.4C152.22 7.76 153.82 9.57999 154.86 11.86C155.94 14.14 156.48 16.66 156.48 19.42C156.48 22.22 155.86 24.76 154.62 27.04C153.42 29.28 151.7 31.06 149.46 32.38C147.26 33.7 144.64 34.36 141.6 34.36H134.64V43H120.12ZM134.64 23.02H138.18C139.34 23.02 140.22 22.7 140.82 22.06C141.42 21.42 141.72 20.54 141.72 19.42C141.72 16.94 140.62 15.7 138.42 15.7H134.64V23.02Z" fill="#7646DA"/>
<path d="M166.004 43V14.8H156.164V4.35999H190.364V14.8H180.524V43H166.004Z" fill="#7646DA"/>
<path d="M211.397 43.6C207.037 43.6 203.317 42.96 200.237 41.68C197.157 40.36 194.797 38.24 193.157 35.32C191.517 32.4 190.697 28.52 190.697 23.68C190.697 18.8 191.517 14.92 193.157 12.04C194.797 9.11999 197.157 7.01999 200.237 5.73999C203.317 4.41999 207.037 3.75999 211.397 3.75999C215.757 3.75999 219.477 4.41999 222.557 5.73999C225.637 7.01999 227.997 9.11999 229.637 12.04C231.277 14.92 232.097 18.8 232.097 23.68C232.097 28.52 231.277 32.4 229.637 35.32C227.997 38.24 225.637 40.36 222.557 41.68C219.477 42.96 215.757 43.6 211.397 43.6ZM211.397 31.3C213.517 31.3 215.017 30.74 215.897 29.62C216.817 28.46 217.277 26.48 217.277 23.68C217.277 20.88 216.817 18.92 215.897 17.8C215.017 16.64 213.517 16.06 211.397 16.06C209.277 16.06 207.757 16.64 206.837 17.8C205.957 18.92 205.517 20.88 205.517 23.68C205.517 26.48 205.957 28.46 206.837 29.62C207.757 30.74 209.277 31.3 211.397 31.3Z" fill="#7646DA"/>
<path d="M246.799 43V4.35999H261.319V31.96H277.099V43H246.799Z" fill="#7646DA"/>
<path d="M298.116 43.6C293.756 43.6 290.036 42.96 286.956 41.68C283.876 40.36 281.516 38.24 279.876 35.32C278.236 32.4 277.416 28.52 277.416 23.68C277.416 18.8 278.236 14.92 279.876 12.04C281.516 9.11999 283.876 7.01999 286.956 5.73999C290.036 4.41999 293.756 3.75999 298.116 3.75999C302.476 3.75999 306.196 4.41999 309.276 5.73999C312.356 7.01999 314.716 9.11999 316.356 12.04C317.996 14.92 318.816 18.8 318.816 23.68C318.816 28.52 317.996 32.4 316.356 35.32C314.716 38.24 312.356 40.36 309.276 41.68C306.196 42.96 302.476 43.6 298.116 43.6ZM298.116 31.3C300.236 31.3 301.736 30.74 302.616 29.62C303.536 28.46 303.996 26.48 303.996 23.68C303.996 20.88 303.536 18.92 302.616 17.8C301.736 16.64 300.236 16.06 298.116 16.06C295.996 16.06 294.476 16.64 293.556 17.8C292.676 18.92 292.236 20.88 292.236 23.68C292.236 26.48 292.676 28.46 293.556 29.62C294.476 30.74 295.996 31.3 298.116 31.3Z" fill="#7646DA"/>
<path d="M328.953 43V14.8H319.113V4.35999H353.313V14.8H343.473V43H328.953Z" fill="#7646DA"/>
<path d="M365.281 43V14.8H355.441V4.35999H389.641V14.8H379.801V43H365.281Z" fill="#7646DA"/>
<path d="M391.76 43V4.35999H422.66V14.8H406.28V18.28H420.38V29.08H406.28V32.56H422.66V43H391.76Z" fill="#7646DA"/>
<path d="M425.041 43V4.35999H446.761C450.081 4.35999 452.821 4.99999 454.981 6.27999C457.141 7.51999 458.741 9.24 459.781 11.44C460.861 13.6 461.401 16.06 461.401 18.82C461.401 21.42 460.721 23.7 459.361 25.66C458.041 27.62 456.441 29.24 454.561 30.52C455.001 30.8 455.341 31.12 455.581 31.48C455.821 31.8 456.021 32.14 456.181 32.5L460.741 43H445.621L441.841 34.42C441.641 33.94 441.421 33.62 441.181 33.46C440.941 33.26 440.601 33.16 440.161 33.16H439.561V43H425.041ZM439.561 21.82H443.101C445.461 21.82 446.641 20.82 446.641 18.82C446.641 17.7 446.361 16.9 445.801 16.42C445.281 15.94 444.461 15.7 443.341 15.7H439.561V21.82Z" fill="#7646DA"/>
<path d="M472.971 43V28.96L458.991 4.35999H474.111L480.231 16.66L486.351 4.35999H501.471L487.491 28.96V43H472.971Z" fill="#7646DA"/>
</g>
<path fill-rule="evenodd" clip-rule="evenodd" d="M7.76187 40.8328L7.75612 40.8278C3.04427 36.7475 0.900024 30.8506 0.900024 23.68C0.900024 16.5191 3.01798 10.6255 7.68451 6.54226L7.6903 6.5372L7.69612 6.53216C12.3315 2.51804 18.896 0.759995 26.88 0.759995C29.4948 0.759995 31.8689 0.948946 33.9786 1.35245C35.7474 1.68438 37.4848 2.1413 39.1899 2.72271V1.35999H63.9099C66.7938 1.35999 69.4462 1.79376 71.7799 2.76119L70.9836 1.35999H93.1172L97.3791 9.92547L101.641 1.35999H141.84C145.558 1.35999 148.895 2.12177 151.658 3.8613C152.186 4.19373 152.688 4.55006 153.164 4.92994V1.35999H193.364V6.79294C194.962 5.17062 196.87 3.89292 199.07 2.97616C202.614 1.46018 206.754 0.759995 211.397 0.759995C216.04 0.759995 220.179 1.46018 223.724 2.97616C227.416 4.51454 230.284 7.06933 232.248 10.5633C234.236 14.0588 235.097 18.5123 235.097 23.68C235.097 28.8199 234.232 33.2645 232.253 36.7891C230.289 40.2849 227.425 42.8576 223.739 44.4374L223.723 44.4439L223.708 44.4503C220.17 45.9207 216.037 46.6 211.397 46.6C206.757 46.6 202.624 45.9207 199.086 44.4503L199.07 44.4439L199.055 44.4374C195.369 42.8576 192.505 40.2849 190.541 36.7891C188.562 33.2645 187.697 28.8199 187.697 23.68C187.697 21.5989 187.836 19.6336 188.133 17.8H183.524V46H163.004V17.8H159.424C159.461 18.3339 159.48 18.874 159.48 19.42C159.48 22.6769 158.754 25.7131 157.259 28.4651C155.796 31.1939 153.688 33.3681 150.993 34.9583C148.249 36.6019 145.078 37.36 141.6 37.36H137.64V46H117.12V13.0705L107.639 29.7529V46H87.1191V29.7529L81.5168 19.8948C81.3468 22.6243 80.5194 25.137 78.9868 27.3527C78.0856 28.6883 77.0648 29.896 75.925 30.9702C75.9759 31.0728 76.0247 31.1766 76.0713 31.2816L76.0765 31.2933L82.4634 46H60.8133L59.7099 43.4953V46H39.1899V44.6596C37.532 45.1912 35.8446 45.6187 34.1283 45.942C32.003 46.3908 29.618 46.6 27 46.6C19.0131 46.6 12.4378 44.8407 7.76765 40.8378L7.76187 40.8328ZM33.54 43C35.46 42.64 37.34 42.14 39.18 41.5V28.84C38.1875 29.2981 37.1875 29.6938 36.18 30.0269C33.4929 30.9156 30.7529 31.36 27.96 31.36C25.16 31.36 22.92 30.82 21.24 29.74C19.56 28.62 18.72 26.6 18.72 23.68C18.72 20.76 19.54 18.76 21.18 17.68C22.82 16.56 25.04 16 27.84 16C30.6329 16 33.3729 16.4443 36.06 17.3331C37.0675 17.6662 38.0675 18.0619 39.06 18.52V5.86C37.22 5.18 35.34 4.66 33.42 4.29999C31.54 3.93999 29.36 3.75999 26.88 3.75999C19.28 3.75999 13.54 5.43999 9.66002 8.79999C5.82002 12.16 3.90002 17.12 3.90002 23.68C3.90002 30.24 5.84002 35.2 9.72002 38.56C13.64 41.92 19.4 43.6 27 43.6C29.48 43.6 31.66 43.4 33.54 43ZM39.1899 21.884L37.8028 21.2439C34.5392 19.7376 31.2268 19 27.84 19C25.4054 19 23.8474 19.4912 22.8719 20.1574L22.8511 20.1716L22.83 20.1855C22.392 20.4739 21.72 21.2457 21.72 23.68C21.72 26.0496 22.3764 26.8829 22.886 27.2316C23.9251 27.8912 25.5321 28.36 27.96 28.36C31.3468 28.36 34.6592 27.6224 37.9229 26.1161L39.1899 25.5313V21.884ZM56.7099 33.16H57.3099C57.7499 33.16 58.0899 33.26 58.3299 33.46C58.5699 33.62 58.7899 33.94 58.9899 34.42L62.7699 43H77.8899L73.3299 32.5C73.1699 32.14 72.9699 31.8 72.7299 31.48C72.4899 31.12 72.1499 30.8 71.7099 30.52C72.5649 29.9378 73.3621 29.2853 74.1013 28.5624C74.9874 27.696 75.7902 26.7285 76.5099 25.66C77.8699 23.7 78.5499 21.42 78.5499 18.82C78.5499 16.7012 78.2316 14.7593 77.5952 12.9941C77.4026 12.4599 77.1808 11.9418 76.9299 11.44C76.4646 10.4558 75.8872 9.56759 75.1978 8.77549C74.3462 7.79707 73.3235 6.96524 72.1299 6.27999C69.9699 4.99999 67.2299 4.35999 63.9099 4.35999H42.1899V43H56.7099V33.16ZM90.1191 28.96V43H104.639V28.96L118.619 4.35999H103.499L97.3791 16.66L91.2591 4.35999H76.1391L90.1191 28.96ZM120.12 43H134.64V34.36H141.6C144.64 34.36 147.26 33.7 149.46 32.38C151.7 31.06 153.42 29.28 154.62 27.04C155.86 24.76 156.48 22.22 156.48 19.42C156.48 18.8705 156.458 18.3305 156.415 17.8C156.363 17.1547 156.28 16.5235 156.164 15.9063C156.094 15.5324 156.013 15.1636 155.919 14.8C155.658 13.7793 155.304 12.7993 154.86 11.86C154.403 10.8581 153.837 9.94498 153.164 9.12072C152.305 8.06927 151.27 7.16236 150.06 6.4C147.9 5.03999 145.16 4.35999 141.84 4.35999H120.12V43ZM156.164 14.8H166.004V43H180.524V14.8H190.364V4.35999H156.164V14.8ZM193.157 12.04C192.681 12.8758 192.274 13.7958 191.936 14.8C191.624 15.7281 191.371 16.7281 191.177 17.8C190.857 19.565 190.697 21.525 190.697 23.68C190.697 28.52 191.517 32.4 193.157 35.32C194.797 38.24 197.157 40.36 200.237 41.68C203.317 42.96 207.037 43.6 211.397 43.6C215.757 43.6 219.477 42.96 222.557 41.68C225.637 40.36 227.997 38.24 229.637 35.32C231.277 32.4 232.097 28.52 232.097 23.68C232.097 18.8 231.277 14.92 229.637 12.04C227.997 9.11999 225.637 7.01999 222.557 5.73999C219.477 4.41999 215.757 3.75999 211.397 3.75999C207.037 3.75999 203.317 4.41999 200.237 5.73999C197.284 6.96705 194.993 8.94769 193.364 11.6819C193.294 11.7999 193.225 11.9192 193.157 12.04ZM60.7882 18.7106C60.7058 18.7042 60.6069 18.7 60.4899 18.7H59.7099V18.82H60.2499C60.4841 18.82 60.6611 18.8046 60.7897 18.7853C60.7894 18.7591 60.7889 18.7343 60.7882 18.7106ZM56.7099 21.82V15.7H60.4899C61.6099 15.7 62.4299 15.94 62.9499 16.42C63.5099 16.9 63.7899 17.7 63.7899 18.82C63.7899 20.82 62.6099 21.82 60.2499 21.82H56.7099ZM137.64 20.02H138.18C138.431 20.02 138.578 19.9914 138.648 19.9721C138.65 19.9662 138.652 19.9596 138.655 19.952C138.68 19.88 138.72 19.716 138.72 19.42C138.72 19.0768 138.687 18.8493 138.654 18.7116C138.596 18.7051 138.518 18.7 138.42 18.7H137.64V20.02ZM138.18 23.02C139.34 23.02 140.22 22.7 140.82 22.06C141.42 21.42 141.72 20.54 141.72 19.42C141.72 16.94 140.62 15.7 138.42 15.7H134.64V23.02H138.18ZM213.538 27.7665L213.546 27.7558C213.808 27.4261 214.277 26.325 214.277 23.68C214.277 21.018 213.801 19.9751 213.579 19.7042L213.542 19.6594L213.507 19.6132C213.419 19.4972 213.026 19.06 211.397 19.06C209.797 19.06 209.333 19.4835 209.192 19.6584C208.971 19.9454 208.517 21.0172 208.517 23.68C208.517 26.2222 208.93 27.3638 209.191 27.7565C209.361 27.9333 209.876 28.3 211.397 28.3C213.06 28.3 213.462 27.8631 213.538 27.7665ZM206.837 17.8C207.757 16.64 209.277 16.06 211.397 16.06C213.517 16.06 215.017 16.64 215.897 17.8C216.817 18.92 217.277 20.88 217.277 23.68C217.277 26.48 216.817 28.46 215.897 29.62C215.017 30.74 213.517 31.3 211.397 31.3C209.277 31.3 207.757 30.74 206.837 29.62C205.957 28.46 205.517 26.48 205.517 23.68C205.517 20.88 205.957 18.92 206.837 17.8ZM243.799 46V1.35999H264.319V28.96H274.765C274.528 27.2975 274.416 25.534 274.416 23.68C274.416 18.5123 275.276 14.0588 277.264 10.5633C279.229 7.06914 282.097 4.51427 285.789 2.97592C289.334 1.46011 293.473 0.759995 298.116 0.759995C302.759 0.759995 306.899 1.46026 310.443 2.97641C312.627 3.88643 314.523 5.15207 316.113 6.75735V1.35999H446.761C449.645 1.35999 452.298 1.79376 454.631 2.76119L453.835 1.35999H475.969L480.231 9.92548L484.492 1.35999H506.626L490.491 29.7529V46H469.971V29.7529L464.368 19.8948C464.198 22.6239 463.371 25.1364 461.839 27.3518C460.938 28.6877 459.917 29.8957 458.777 30.9702C458.827 31.0728 458.876 31.1766 458.923 31.2816L458.928 31.2933L458.933 31.305L465.315 46H443.665L442.561 43.4953V46H388.76V17.8H382.801V46H362.281V17.8H346.473V46H325.953V17.8H321.379C321.676 19.6336 321.816 21.5989 321.816 23.68C321.816 28.8199 320.951 33.2645 318.971 36.7891C317.008 40.2849 314.144 42.8576 310.457 44.4374L310.442 44.4439L310.427 44.4503C306.889 45.9207 302.755 46.6 298.116 46.6C293.476 46.6 289.343 45.9207 285.804 44.4503L285.789 44.4439L285.774 44.4374C283.588 43.5005 281.691 42.2144 280.099 40.5936V46H243.799ZM277.099 31.96H261.319V4.35999H246.799V43H277.099V31.96ZM280.099 35.7057C281.727 38.4274 284.013 40.4188 286.956 41.68C290.036 42.96 293.756 43.6 298.116 43.6C302.476 43.6 306.196 42.96 309.276 41.68C312.356 40.36 314.716 38.24 316.356 35.32C317.996 32.4 318.816 28.52 318.816 23.68C318.816 21.525 318.656 19.565 318.336 17.8C318.142 16.7281 317.888 15.7281 317.576 14.8C317.238 13.7958 316.832 12.8758 316.356 12.04C316.277 11.8991 316.196 11.7602 316.113 11.6232C314.486 8.91931 312.207 6.95825 309.276 5.73999C306.196 4.41999 302.476 3.75999 298.116 3.75999C293.756 3.75999 290.036 4.41999 286.956 5.73999C283.876 7.01999 281.516 9.11999 279.876 12.04C278.236 14.92 277.416 18.8 277.416 23.68C277.416 25.5894 277.543 27.3494 277.799 28.96C277.967 30.0254 278.192 31.0254 278.473 31.96C278.843 33.194 279.311 34.314 279.876 35.32C279.949 35.4502 280.023 35.5787 280.099 35.7057ZM328.953 14.8V43H343.473V14.8H353.313V4.35999H319.113V14.8H328.953ZM365.281 14.8V43H379.801V14.8H389.641V4.35999H355.441V14.8H365.281ZM391.76 43H422.66V32.56H406.28V29.08H420.38V18.28H406.28V14.8H422.66V4.35999H391.76V43ZM425.041 43H439.561V33.16H440.161C440.601 33.16 440.941 33.26 441.181 33.46C441.421 33.62 441.641 33.94 441.841 34.42L445.621 43H460.741L456.181 32.5C456.021 32.14 455.821 31.8 455.581 31.48C455.341 31.12 455.001 30.8 454.561 30.52C455.417 29.9378 456.214 29.2853 456.953 28.5624C457.839 27.696 458.642 26.7285 459.361 25.66C460.721 23.7 461.401 21.42 461.401 18.82C461.401 16.7012 461.083 14.7593 460.447 12.9941C460.254 12.4599 460.032 11.9418 459.781 11.44C459.316 10.4558 458.739 9.5676 458.049 8.77551C457.198 7.79709 456.175 6.96525 454.981 6.27999C452.821 4.99999 450.081 4.35999 446.761 4.35999H425.041V43ZM472.971 28.96V43H487.491V28.96L501.471 4.35999H486.351L480.231 16.66L474.111 4.35999H458.991L472.971 28.96ZM300.257 27.7665L300.265 27.7558C300.527 27.4261 300.996 26.325 300.996 23.68C300.996 21.018 300.52 19.9751 300.297 19.7042L300.261 19.6594L300.226 19.6132C300.138 19.4972 299.745 19.06 298.116 19.06C296.515 19.06 296.051 19.4841 295.91 19.6588C295.689 19.9464 295.236 21.0184 295.236 23.68C295.236 26.2223 295.649 27.3639 295.91 27.7566C296.08 27.9333 296.595 28.3 298.116 28.3C299.779 28.3 300.181 27.8631 300.257 27.7665ZM443.64 18.7106C443.557 18.7042 443.458 18.7 443.341 18.7H442.561V18.82H443.101C443.336 18.82 443.513 18.8046 443.641 18.7853C443.641 18.7591 443.641 18.7343 443.64 18.7106ZM439.561 21.82V15.7H443.341C444.461 15.7 445.281 15.94 445.801 16.42C446.361 16.9 446.641 17.7 446.641 18.82C446.641 20.82 445.461 21.82 443.101 21.82H439.561ZM302.616 29.62C301.736 30.74 300.236 31.3 298.116 31.3C295.996 31.3 294.476 30.74 293.556 29.62C292.676 28.46 292.236 26.48 292.236 23.68C292.236 20.88 292.676 18.92 293.556 17.8C294.476 16.64 295.996 16.06 298.116 16.06C300.236 16.06 301.736 16.64 302.616 17.8C303.536 18.92 303.996 20.88 303.996 23.68C303.996 26.48 303.536 28.46 302.616 29.62Z" fill="white"/>
<defs>
<filter id="filter0_d_91_25" x="0.900024" y="3.75999" width="503.571" height="45.84" filterUnits="userSpaceOnUse" color-interpolation-filters="sRGB">
<feFlood flood-opacity="0" result="BackgroundImageFix"/>
<feColorMatrix in="SourceAlpha" type="matrix" values="0 0 0 0 0 0 0 0 0 0 0 0 0 0 0 0 0 0 127 0" result="hardAlpha"/>
<feOffset dy="3"/>
<feGaussianBlur stdDeviation="1.5"/>
<feComposite in2="hardAlpha" operator="out"/>
<feColorMatrix type="matrix" values="0 0 0 0 0 0 0 0 0 0 0 0 0 0 0 0 0 0 0.1 0"/>
<feBlend mode="normal" in2="BackgroundImageFix" result="effect1_dropShadow_91_25"/>
<feBlend mode="normal" in="SourceGraphic" in2="effect1_dropShadow_91_25" result="shape"/>
</filter>
</defs>
</svg>
