<svg width="288" height="116" viewBox="0 0 288 116" fill="none" xmlns="http://www.w3.org/2000/svg">
<path d="M272 3H86C84.3 3 83 4.4 82.5 5.9C81.3 9.5 77.9 12 74 12C70.1 12 66.7 9.5 65.5 5.9C65 4.4 63.7 3 62 3H16C7.2 3 0 10.2 0 19V100C0 108.8 7.2 116 16 116H62C63.7 116 65 114.6 65.5 113.1C66.7 109.6 70.1 107 74 107C77.9 107 81.3 109.5 82.5 113.1C83 114.7 84.3 116 86 116H272C280.8 116 288 108.8 288 100V19C288 10.2 280.8 3 272 3ZM76 13V14H72V13H76ZM72 86V82H76V86H72ZM76 90V94H72V90H76ZM72 78V74H76V78H72ZM72 70V66H76V70H72ZM72 62V58H76V62H72ZM72 54V50H76V54H72ZM72 46V42H76V46H72ZM72 38V34H76V38H72ZM72 30V26H76V30H72ZM72 22V18H76V22H72ZM72 98H76V102H72V98Z" fill="#BC842B"/>
<path d="M272 0H86C84.3 0 83 1.4 82.5 2.9C81.3 6.5 77.9 9 74 9C70.1 9 66.7 6.5 65.5 2.9C65 1.4 63.7 0 62 0H16C7.2 0 0 7.2 0 16V97C0 105.8 7.2 113 16 113H62C63.7 113 65 111.6 65.5 110.1C66.7 106.6 70.1 104 74 104C77.9 104 81.3 106.5 82.5 110.1C83 111.7 84.3 113 86 113H272C280.8 113 288 105.8 288 97V16C288 7.2 280.8 0 272 0ZM76 10V11H72V10H76ZM72 83V79H76V83H72ZM76 87V91H72V87H76ZM72 75V71H76V75H72ZM72 67V63H76V67H72ZM72 59V55H76V59H72ZM72 51V47H76V51H72ZM72 43V39H76V43H72ZM72 35V31H76V35H72ZM72 27V23H76V27H72ZM72 19V15H76V19H72ZM72 95H76V99H72V95Z" fill="#FFB237"/>
<rect x="24" y="36" width="240" height="48" rx="15" fill="#6335C3"/>
<rect x="24" y="33" width="240" height="48" rx="15" fill="#7646DA"/>
</svg>
